<?xml version="1.0" encoding="UTF-8"?>
<svg xmlns="http://www.w3.org/2000/svg" xmlns:xlink="http://www.w3.org/1999/xlink" width="561.75pt" height="556.499983pt" viewBox="0 0 561.75 556.499983" version="1.2">
<defs>
<clipPath id="clip1">
  <path d="M 502 507 L 561.371094 507 L 561.371094 510 L 502 510 Z M 502 507 "/>
</clipPath>
<clipPath id="clip2">
  <path d="M 502 285 L 561.371094 285 L 561.371094 289 L 502 289 Z M 502 285 "/>
</clipPath>
<clipPath id="clip3">
  <path d="M 502 259 L 561.371094 259 L 561.371094 262 L 502 262 Z M 502 259 "/>
</clipPath>
<clipPath id="clip4">
  <path d="M 515 325 L 561.371094 325 L 561.371094 329 L 515 329 Z M 515 325 "/>
</clipPath>
<clipPath id="clip5">
  <path d="M 535 300 L 561.371094 300 L 561.371094 303 L 535 303 Z M 535 300 "/>
</clipPath>
<clipPath id="clip6">
  <path d="M 502 272 L 561.371094 272 L 561.371094 276 L 502 276 Z M 502 272 "/>
</clipPath>
<clipPath id="clip7">
  <path d="M 502 449 L 561.371094 449 L 561.371094 454 L 502 454 Z M 502 449 "/>
</clipPath>
<clipPath id="clip8">
  <path d="M 502 361 L 561.371094 361 L 561.371094 365 L 502 365 Z M 502 361 "/>
</clipPath>
<clipPath id="clip9">
  <path d="M 502 439 L 561.371094 439 L 561.371094 442 L 502 442 Z M 502 439 "/>
</clipPath>
<clipPath id="clip10">
  <path d="M 502 12 L 561.371094 12 L 561.371094 16 L 502 16 Z M 502 12 "/>
</clipPath>
<clipPath id="clip11">
  <path d="M 502 337 L 561.371094 337 L 561.371094 340 L 502 340 Z M 502 337 "/>
</clipPath>
<clipPath id="clip12">
  <path d="M 502 383 L 561.371094 383 L 561.371094 387 L 502 387 Z M 502 383 "/>
</clipPath>
<clipPath id="clip13">
  <path d="M 502 425 L 561.371094 425 L 561.371094 429 L 502 429 Z M 502 425 "/>
</clipPath>
<clipPath id="clip14">
  <path d="M 502 373 L 561.371094 373 L 561.371094 377 L 502 377 Z M 502 373 "/>
</clipPath>
<clipPath id="clip15">
  <path d="M 502 22 L 561.371094 22 L 561.371094 25 L 502 25 Z M 502 22 "/>
</clipPath>
<clipPath id="clip16">
  <path d="M 502 61 L 561.371094 61 L 561.371094 65 L 502 65 Z M 502 61 "/>
</clipPath>
<clipPath id="clip17">
  <path d="M 502 39 L 561.371094 39 L 561.371094 43 L 502 43 Z M 502 39 "/>
</clipPath>
<clipPath id="clip18">
  <path d="M 502 76 L 561.371094 76 L 561.371094 79 L 502 79 Z M 502 76 "/>
</clipPath>
<clipPath id="clip19">
  <path d="M 502 313 L 561.371094 313 L 561.371094 318 L 502 318 Z M 502 313 "/>
</clipPath>
<clipPath id="clip20">
  <path d="M 502 53 L 561.371094 53 L 561.371094 56 L 502 56 Z M 502 53 "/>
</clipPath>
<clipPath id="clip21">
  <path d="M 502 0 L 561.371094 0 L 561.371094 2 L 502 2 Z M 502 0 "/>
</clipPath>
<clipPath id="clip22">
  <path d="M 502 469 L 561.371094 469 L 561.371094 474 L 502 474 Z M 502 469 "/>
</clipPath>
<clipPath id="clip23">
  <path d="M 502 480 L 561.371094 480 L 561.371094 484 L 502 484 Z M 502 480 "/>
</clipPath>
<clipPath id="clip24">
  <path d="M 502 495 L 561.371094 495 L 561.371094 498 L 502 498 Z M 502 495 "/>
</clipPath>
<clipPath id="clip25">
  <path d="M 544 345 L 561.371094 345 L 561.371094 349 L 544 349 Z M 544 345 "/>
</clipPath>
<clipPath id="clip26">
  <path d="M 502 191 L 561.371094 191 L 561.371094 196 L 502 196 Z M 502 191 "/>
</clipPath>
<clipPath id="clip27">
  <path d="M 502 176 L 561.371094 176 L 561.371094 181 L 502 181 Z M 502 176 "/>
</clipPath>
<clipPath id="clip28">
  <path d="M 502 89 L 561.371094 89 L 561.371094 92 L 502 92 Z M 502 89 "/>
</clipPath>
<clipPath id="clip29">
  <path d="M 502 397 L 561.371094 397 L 561.371094 400 L 502 400 Z M 502 397 "/>
</clipPath>
<clipPath id="clip30">
  <path d="M 502 162 L 561.371094 162 L 561.371094 167 L 502 167 Z M 502 162 "/>
</clipPath>
<clipPath id="clip31">
  <path d="M 504 134 L 561.371094 134 L 561.371094 139 L 504 139 Z M 504 134 "/>
</clipPath>
<clipPath id="clip32">
  <path d="M 502 98 L 561.371094 98 L 561.371094 103 L 502 103 Z M 502 98 "/>
</clipPath>
<clipPath id="clip33">
  <path d="M 504 146 L 561.371094 146 L 561.371094 151 L 504 151 Z M 504 146 "/>
</clipPath>
<clipPath id="clip34">
  <path d="M 502 119 L 561.371094 119 L 561.371094 125 L 502 125 Z M 502 119 "/>
</clipPath>
<clipPath id="clip35">
  <path d="M 502 109 L 561.371094 109 L 561.371094 114 L 502 114 Z M 502 109 "/>
</clipPath>
<clipPath id="clip36">
  <path d="M 502 505 L 561.371094 505 L 561.371094 510 L 502 510 Z M 502 505 "/>
</clipPath>
<clipPath id="clip37">
  <path d="M 502 542 L 561.371094 542 L 561.371094 546 L 502 546 Z M 502 542 "/>
</clipPath>
<clipPath id="clip38">
  <path d="M 502 522 L 561.371094 522 L 561.371094 525 L 502 525 Z M 502 522 "/>
</clipPath>
<clipPath id="clip39">
  <path d="M 502 533 L 561.371094 533 L 561.371094 536 L 502 536 Z M 502 533 "/>
</clipPath>
<clipPath id="clip40">
  <path d="M 0.128906 509 L 55 509 L 55 512 L 0.128906 512 Z M 0.128906 509 "/>
</clipPath>
<clipPath id="clip41">
  <path d="M 486 240 L 561.371094 240 L 561.371094 244 L 486 244 Z M 486 240 "/>
</clipPath>
<clipPath id="clip42">
  <path d="M 486 411 L 561.371094 411 L 561.371094 414 L 486 414 Z M 486 411 "/>
</clipPath>
<clipPath id="clip43">
  <path d="M 486 231 L 561.371094 231 L 561.371094 236 L 486 236 Z M 486 231 "/>
</clipPath>
<clipPath id="clip44">
  <path d="M 460 207 L 561.371094 207 L 561.371094 213 L 460 213 Z M 460 207 "/>
</clipPath>
<clipPath id="clip45">
  <path d="M 460 217 L 561.371094 217 L 561.371094 222 L 460 222 Z M 460 217 "/>
</clipPath>
<clipPath id="clip46">
  <path d="M 0.128906 240 L 487 240 L 487 260 L 0.128906 260 Z M 0.128906 240 "/>
</clipPath>
<clipPath id="clip47">
  <path d="M 0.128906 285 L 503 285 L 503 302 L 0.128906 302 Z M 0.128906 285 "/>
</clipPath>
<clipPath id="clip48">
  <path d="M 0.128906 259 L 503 259 L 503 272 L 0.128906 272 Z M 0.128906 259 "/>
</clipPath>
<clipPath id="clip49">
  <path d="M 0.128906 325 L 516 325 L 516 338 L 0.128906 338 Z M 0.128906 325 "/>
</clipPath>
<clipPath id="clip50">
  <path d="M 0.128906 300 L 536 300 L 536 315 L 0.128906 315 Z M 0.128906 300 "/>
</clipPath>
<clipPath id="clip51">
  <path d="M 0.128906 272 L 503 272 L 503 284 L 0.128906 284 Z M 0.128906 272 "/>
</clipPath>
<clipPath id="clip52">
  <path d="M 0.128906 450 L 503 450 L 503 467 L 0.128906 467 Z M 0.128906 450 "/>
</clipPath>
<clipPath id="clip53">
  <path d="M 0.128906 361 L 503 361 L 503 375 L 0.128906 375 Z M 0.128906 361 "/>
</clipPath>
<clipPath id="clip54">
  <path d="M 0.128906 438 L 503 438 L 503 451 L 0.128906 451 Z M 0.128906 438 "/>
</clipPath>
<clipPath id="clip55">
  <path d="M 0.128906 12 L 503 12 L 503 23 L 0.128906 23 Z M 0.128906 12 "/>
</clipPath>
<clipPath id="clip56">
  <path d="M 0.128906 337 L 503 337 L 503 348 L 0.128906 348 Z M 0.128906 337 "/>
</clipPath>
<clipPath id="clip57">
  <path d="M 0.128906 383 L 503 383 L 503 400 L 0.128906 400 Z M 0.128906 383 "/>
</clipPath>
<clipPath id="clip58">
  <path d="M 0.128906 425 L 503 425 L 503 439 L 0.128906 439 Z M 0.128906 425 "/>
</clipPath>
<clipPath id="clip59">
  <path d="M 0.128906 373 L 503 373 L 503 388 L 0.128906 388 Z M 0.128906 373 "/>
</clipPath>
<clipPath id="clip60">
  <path d="M 0.128906 411 L 487 411 L 487 424 L 0.128906 424 Z M 0.128906 411 "/>
</clipPath>
<clipPath id="clip61">
  <path d="M 0.128906 22 L 503 22 L 503 39 L 0.128906 39 Z M 0.128906 22 "/>
</clipPath>
<clipPath id="clip62">
  <path d="M 0.128906 61 L 503 61 L 503 76 L 0.128906 76 Z M 0.128906 61 "/>
</clipPath>
<clipPath id="clip63">
  <path d="M 0.128906 39 L 503 39 L 503 50 L 0.128906 50 Z M 0.128906 39 "/>
</clipPath>
<clipPath id="clip64">
  <path d="M 0.128906 76 L 503 76 L 503 89 L 0.128906 89 Z M 0.128906 76 "/>
</clipPath>
<clipPath id="clip65">
  <path d="M 0.128906 312 L 503 312 L 503 326 L 0.128906 326 Z M 0.128906 312 "/>
</clipPath>
<clipPath id="clip66">
  <path d="M 0.128906 53 L 503 53 L 503 64 L 0.128906 64 Z M 0.128906 53 "/>
</clipPath>
<clipPath id="clip67">
  <path d="M 0.128906 231 L 487 231 L 487 242 L 0.128906 242 Z M 0.128906 231 "/>
</clipPath>
<clipPath id="clip68">
  <path d="M 0.128906 0 L 503 0 L 503 10 L 0.128906 10 Z M 0.128906 0 "/>
</clipPath>
<clipPath id="clip69">
  <path d="M 0.128906 468 L 503 468 L 503 482 L 0.128906 482 Z M 0.128906 468 "/>
</clipPath>
<clipPath id="clip70">
  <path d="M 0.128906 480 L 503 480 L 503 490 L 0.128906 490 Z M 0.128906 480 "/>
</clipPath>
<clipPath id="clip71">
  <path d="M 0.128906 495 L 503 495 L 503 505 L 0.128906 505 Z M 0.128906 495 "/>
</clipPath>
<clipPath id="clip72">
  <path d="M 0.128906 345 L 545 345 L 545 360 L 0.128906 360 Z M 0.128906 345 "/>
</clipPath>
<clipPath id="clip73">
  <path d="M 0.128906 191 L 503 191 L 503 207 L 0.128906 207 Z M 0.128906 191 "/>
</clipPath>
<clipPath id="clip74">
  <path d="M 0.128906 208 L 461 208 L 461 220 L 0.128906 220 Z M 0.128906 208 "/>
</clipPath>
<clipPath id="clip75">
  <path d="M 0.128906 217 L 461 217 L 461 229 L 0.128906 229 Z M 0.128906 217 "/>
</clipPath>
<clipPath id="clip76">
  <path d="M 0.128906 175 L 503 175 L 503 190 L 0.128906 190 Z M 0.128906 175 "/>
</clipPath>
<clipPath id="clip77">
  <path d="M 0.128906 89 L 503 89 L 503 105 L 0.128906 105 Z M 0.128906 89 "/>
</clipPath>
<clipPath id="clip78">
  <path d="M 0.128906 397 L 503 397 L 503 413 L 0.128906 413 Z M 0.128906 397 "/>
</clipPath>
<clipPath id="clip79">
  <path d="M 0.128906 162 L 503 162 L 503 181 L 0.128906 181 Z M 0.128906 162 "/>
</clipPath>
<clipPath id="clip80">
  <path d="M 0.128906 134 L 505 134 L 505 155 L 0.128906 155 Z M 0.128906 134 "/>
</clipPath>
<clipPath id="clip81">
  <path d="M 0.128906 98 L 503 98 L 503 115 L 0.128906 115 Z M 0.128906 98 "/>
</clipPath>
<clipPath id="clip82">
  <path d="M 0.128906 147 L 505 147 L 505 166 L 0.128906 166 Z M 0.128906 147 "/>
</clipPath>
<clipPath id="clip83">
  <path d="M 0.128906 119 L 503 119 L 503 141 L 0.128906 141 Z M 0.128906 119 "/>
</clipPath>
<clipPath id="clip84">
  <path d="M 0.128906 109 L 503 109 L 503 127 L 0.128906 127 Z M 0.128906 109 "/>
</clipPath>
<clipPath id="clip85">
  <path d="M 0.128906 505 L 503 505 L 503 523 L 0.128906 523 Z M 0.128906 505 "/>
</clipPath>
<clipPath id="clip86">
  <path d="M 0.128906 543 L 503 543 L 503 556 L 0.128906 556 Z M 0.128906 543 "/>
</clipPath>
<clipPath id="clip87">
  <path d="M 0.128906 522 L 503 522 L 503 535 L 0.128906 535 Z M 0.128906 522 "/>
</clipPath>
<clipPath id="clip88">
  <path d="M 0.128906 533 L 503 533 L 503 543 L 0.128906 543 Z M 0.128906 533 "/>
</clipPath>
</defs>
<g id="surface1">
<g clip-path="url(#clip1)" clip-rule="nonzero">
<path style=" stroke:none;fill-rule:nonzero;fill:rgb(12.548828%,12.548828%,12.548828%);fill-opacity:1;" d="M 502.910156 507.960938 C 522.394531 508.078125 541.871094 508.421875 561.347656 509.21875 C 541.871094 508.421875 522.394531 508.078125 502.910156 507.960938 "/>
</g>
<g clip-path="url(#clip2)" clip-rule="nonzero">
<path style=" stroke:none;fill-rule:nonzero;fill:rgb(12.548828%,12.548828%,12.548828%);fill-opacity:1;" d="M 517.03125 286.257812 C 512.320312 286.367188 507.617188 286.449219 502.910156 286.523438 L 502.910156 288.972656 C 503.792969 288.964844 504.675781 288.957031 505.558594 288.949219 C 524.152344 288.613281 542.746094 287.953125 561.347656 288.199219 L 561.347656 285.75 C 546.574219 285.628906 531.804688 285.917969 517.03125 286.257812 "/>
</g>
<g clip-path="url(#clip3)" clip-rule="nonzero">
<path style=" stroke:none;fill-rule:nonzero;fill:rgb(12.548828%,12.548828%,12.548828%);fill-opacity:1;" d="M 502.910156 259.203125 L 502.910156 261.679688 C 503.785156 261.675781 504.667969 261.671875 505.546875 261.667969 C 522.972656 261.632812 540.402344 261.871094 557.824219 261.839844 C 559 261.839844 560.171875 261.851562 561.347656 261.855469 L 561.347656 259.167969 C 552.113281 259.097656 542.878906 259.066406 533.640625 259.027344 C 523.398438 258.980469 513.15625 259.085938 502.910156 259.203125 "/>
</g>
<g clip-path="url(#clip4)" clip-rule="nonzero">
<path style=" stroke:none;fill-rule:nonzero;fill:rgb(12.548828%,12.548828%,12.548828%);fill-opacity:1;" d="M 515.707031 325.257812 L 515.707031 327.734375 C 530.921875 327.78125 546.136719 327.910156 561.347656 328.175781 L 561.347656 325.789062 C 549.210938 325.628906 537.074219 325.5 524.9375 325.363281 C 521.859375 325.332031 518.785156 325.292969 515.707031 325.257812 "/>
</g>
<g clip-path="url(#clip5)" clip-rule="nonzero">
<path style=" stroke:none;fill-rule:nonzero;fill:rgb(12.548828%,12.548828%,12.548828%);fill-opacity:1;" d="M 541.304688 300.066406 C 539.261719 300.046875 537.210938 300.085938 535.167969 300.140625 L 535.167969 302.8125 C 540.382812 302.691406 545.601562 302.589844 550.820312 302.511719 C 554.328125 302.460938 557.839844 302.429688 561.347656 302.410156 L 561.347656 300.085938 C 554.667969 300.101562 547.984375 300.125 541.304688 300.066406 "/>
</g>
<g clip-path="url(#clip6)" clip-rule="nonzero">
<path style=" stroke:none;fill-rule:nonzero;fill:rgb(12.548828%,12.548828%,12.548828%);fill-opacity:1;" d="M 525.238281 272.722656 C 517.804688 272.878906 510.355469 272.84375 502.910156 272.808594 L 502.910156 275.171875 C 505.84375 275.171875 508.777344 275.175781 511.710938 275.167969 C 526.726562 275.125 541.742188 274.792969 556.765625 274.695312 C 558.292969 274.683594 559.820312 274.691406 561.347656 274.691406 L 561.347656 272.363281 C 560.234375 272.359375 559.125 272.347656 558.011719 272.355469 C 547.085938 272.410156 536.164062 272.5 525.238281 272.722656 "/>
</g>
<g clip-path="url(#clip7)" clip-rule="nonzero">
<path style=" stroke:none;fill-rule:nonzero;fill:rgb(12.548828%,12.548828%,12.548828%);fill-opacity:1;" d="M 508.433594 450.683594 C 506.59375 450.734375 504.753906 450.769531 502.910156 450.8125 L 502.910156 453.296875 C 519.964844 452.855469 537.015625 452.25 554.082031 452.425781 C 556.503906 452.445312 558.925781 452.46875 561.347656 452.492188 L 561.347656 450.019531 C 559.757812 449.996094 558.167969 449.976562 556.582031 449.960938 C 540.527344 449.835938 524.484375 450.234375 508.433594 450.683594 "/>
</g>
<g clip-path="url(#clip8)" clip-rule="nonzero">
<path style=" stroke:none;fill-rule:nonzero;fill:rgb(12.548828%,12.548828%,12.548828%);fill-opacity:1;" d="M 502.910156 361.851562 L 502.910156 364.542969 C 514.328125 364.59375 525.746094 364.679688 537.160156 364.652344 C 545.226562 364.632812 553.289062 364.707031 561.347656 364.847656 L 561.347656 362.214844 C 545.207031 361.929688 529.058594 361.90625 512.914062 361.847656 C 509.582031 361.835938 506.246094 361.835938 502.910156 361.851562 "/>
</g>
<g clip-path="url(#clip9)" clip-rule="nonzero">
<path style=" stroke:none;fill-rule:nonzero;fill:rgb(12.548828%,12.548828%,12.548828%);fill-opacity:1;" d="M 532.152344 439.386719 C 522.402344 439.4375 512.65625 439.414062 502.910156 439.378906 L 502.910156 441.652344 C 520.019531 441.726562 537.132812 441.816406 554.238281 441.777344 C 556.609375 441.773438 558.976562 441.75 561.347656 441.730469 L 561.347656 439.414062 C 551.617188 439.488281 541.878906 439.339844 532.152344 439.386719 "/>
</g>
<g clip-path="url(#clip10)" clip-rule="nonzero">
<path style=" stroke:none;fill-rule:nonzero;fill:rgb(12.548828%,12.548828%,12.548828%);fill-opacity:1;" d="M 511.136719 12.992188 C 508.394531 13 505.652344 13 502.910156 13 L 502.910156 15.027344 C 513.023438 15.070312 523.132812 15.101562 533.242188 15.089844 C 542.609375 15.078125 551.980469 14.972656 561.347656 14.875 L 561.347656 12.800781 C 556.515625 12.839844 551.683594 12.898438 546.855469 12.976562 C 534.957031 13.171875 523.039062 12.953125 511.136719 12.992188 "/>
</g>
<g clip-path="url(#clip11)" clip-rule="nonzero">
<path style=" stroke:none;fill-rule:nonzero;fill:rgb(12.548828%,12.548828%,12.548828%);fill-opacity:1;" d="M 502.910156 337.597656 L 502.910156 339.628906 C 512.523438 339.585938 522.136719 339.53125 531.75 339.492188 C 541.617188 339.449219 551.484375 339.394531 561.347656 339.394531 L 561.347656 337.441406 C 556.257812 337.441406 551.171875 337.449219 546.082031 337.464844 C 531.691406 337.503906 517.300781 337.601562 502.910156 337.597656 "/>
</g>
<g clip-path="url(#clip12)" clip-rule="nonzero">
<path style=" stroke:none;fill-rule:nonzero;fill:rgb(12.548828%,12.548828%,12.548828%);fill-opacity:1;" d="M 515.414062 383.992188 C 511.246094 384.097656 507.078125 384.175781 502.910156 384.253906 L 502.910156 386.707031 C 503.28125 386.699219 503.648438 386.695312 504.019531 386.691406 C 522.835938 386.3125 541.644531 385.589844 560.472656 385.835938 C 560.761719 385.839844 561.054688 385.84375 561.347656 385.847656 L 561.347656 383.402344 C 546.035156 383.273438 530.726562 383.605469 515.414062 383.992188 "/>
</g>
<g clip-path="url(#clip13)" clip-rule="nonzero">
<path style=" stroke:none;fill-rule:nonzero;fill:rgb(12.548828%,12.548828%,12.548828%);fill-opacity:1;" d="M 515.191406 425.761719 C 511.097656 425.804688 507.003906 425.847656 502.910156 425.894531 L 502.910156 428.25 C 510.953125 428.179688 518.996094 428.132812 527.039062 428.113281 C 538.480469 428.085938 549.914062 428.175781 561.347656 428.230469 L 561.347656 425.492188 C 559.265625 425.488281 557.179688 425.480469 555.097656 425.46875 C 541.792969 425.414062 528.492188 425.609375 515.191406 425.761719 "/>
</g>
<g clip-path="url(#clip14)" clip-rule="nonzero">
<path style=" stroke:none;fill-rule:nonzero;fill:rgb(12.548828%,12.548828%,12.548828%);fill-opacity:1;" d="M 502.910156 373.28125 L 502.910156 375.640625 C 522.394531 375.511719 541.878906 375.914062 561.347656 376.734375 L 561.347656 374.628906 C 557.671875 374.5 553.992188 374.355469 550.320312 374.136719 C 534.523438 373.214844 518.714844 373.304688 502.910156 373.28125 "/>
</g>
<g clip-path="url(#clip15)" clip-rule="nonzero">
<path style=" stroke:none;fill-rule:nonzero;fill:rgb(12.548828%,12.548828%,12.548828%);fill-opacity:1;" d="M 502.910156 22.472656 L 502.910156 24.609375 C 507.101562 24.527344 511.292969 24.472656 515.492188 24.464844 C 530.785156 24.457031 546.066406 24.535156 561.347656 24.8125 L 561.347656 22.4375 C 554.320312 22.335938 547.289062 22.316406 540.261719 22.3125 C 527.8125 22.3125 515.359375 22.289062 502.910156 22.472656 "/>
</g>
<g clip-path="url(#clip16)" clip-rule="nonzero">
<path style=" stroke:none;fill-rule:nonzero;fill:rgb(12.548828%,12.548828%,12.548828%);fill-opacity:1;" d="M 503.324219 62.066406 C 503.1875 62.074219 503.050781 62.074219 502.910156 62.078125 L 502.910156 64.222656 C 518.257812 63.8125 533.609375 63.351562 548.976562 63.4375 C 553.097656 63.464844 557.222656 63.480469 561.347656 63.503906 L 561.347656 61.371094 C 558.054688 61.335938 554.761719 61.308594 551.464844 61.296875 C 535.414062 61.238281 519.371094 61.632812 503.324219 62.066406 "/>
</g>
<g clip-path="url(#clip17)" clip-rule="nonzero">
<path style=" stroke:none;fill-rule:nonzero;fill:rgb(12.548828%,12.548828%,12.548828%);fill-opacity:1;" d="M 502.910156 39.136719 L 502.910156 41.46875 C 522.402344 41.410156 541.878906 41.785156 561.347656 42.414062 L 561.347656 40.25 C 552.355469 39.890625 543.363281 39.59375 534.367188 39.421875 C 523.882812 39.222656 513.398438 39.152344 502.910156 39.136719 "/>
</g>
<g clip-path="url(#clip18)" clip-rule="nonzero">
<path style=" stroke:none;fill-rule:nonzero;fill:rgb(12.548828%,12.548828%,12.548828%);fill-opacity:1;" d="M 520.203125 76.074219 C 514.433594 76.042969 508.671875 76.339844 502.910156 76.59375 L 502.910156 78.753906 C 511.871094 78.527344 520.835938 78.324219 529.800781 78.1875 C 540.316406 78.023438 550.832031 78.003906 561.347656 78.101562 L 561.347656 76.035156 C 547.632812 75.925781 533.917969 76.140625 520.203125 76.074219 "/>
</g>
<g clip-path="url(#clip19)" clip-rule="nonzero">
<path style=" stroke:none;fill-rule:nonzero;fill:rgb(12.548828%,12.548828%,12.548828%);fill-opacity:1;" d="M 514.457031 313.757812 C 510.609375 313.738281 506.757812 313.585938 502.910156 313.414062 L 502.910156 315.574219 C 519.609375 316 536.304688 316.523438 553.003906 316.953125 C 555.839844 317.023438 558.613281 317.101562 561.347656 317.179688 L 561.347656 315.015625 C 560.191406 314.984375 559.035156 314.960938 557.878906 314.949219 C 543.390625 314.828125 528.949219 313.839844 514.457031 313.757812 "/>
</g>
<g clip-path="url(#clip20)" clip-rule="nonzero">
<path style=" stroke:none;fill-rule:nonzero;fill:rgb(12.548828%,12.548828%,12.548828%);fill-opacity:1;" d="M 502.910156 53.742188 L 502.910156 55.828125 C 507.632812 55.84375 512.359375 55.855469 517.082031 55.855469 C 531.835938 55.863281 546.589844 55.632812 561.347656 55.582031 L 561.347656 53.53125 C 551.144531 53.554688 540.945312 53.605469 530.746094 53.761719 C 521.476562 53.898438 512.1875 53.785156 502.910156 53.742188 "/>
</g>
<g clip-path="url(#clip21)" clip-rule="nonzero">
<path style=" stroke:none;fill-rule:nonzero;fill:rgb(12.548828%,12.548828%,12.548828%);fill-opacity:1;" d="M 502.910156 0.121094 L 502.910156 1.789062 C 522.386719 1.894531 541.867188 1.808594 561.347656 1.914062 L 561.347656 0.3125 C 551.535156 0.199219 541.726562 0.0820312 531.914062 0.00390625 C 527.4375 -0.03125 516.140625 0.0234375 502.910156 0.121094 "/>
</g>
<g clip-path="url(#clip22)" clip-rule="nonzero">
<path style=" stroke:none;fill-rule:nonzero;fill:rgb(12.548828%,12.548828%,12.548828%);fill-opacity:1;" d="M 502.910156 471.488281 C 525.964844 471.96875 547.664062 472.65625 561.347656 473.128906 L 561.347656 471.425781 C 550.097656 471.195312 523.351562 469.714844 502.910156 469.203125 L 502.910156 471.488281 "/>
</g>
<g clip-path="url(#clip23)" clip-rule="nonzero">
<path style=" stroke:none;fill-rule:nonzero;fill:rgb(12.548828%,12.548828%,12.548828%);fill-opacity:1;" d="M 502.910156 480.675781 L 502.910156 482.613281 C 524.023438 482.664062 545.863281 483.082031 561.347656 483.695312 L 561.347656 481.449219 C 552.578125 481.1875 543.8125 480.9375 535.042969 480.710938 C 527.320312 480.515625 515.757812 480.539062 502.910156 480.675781 "/>
</g>
<g clip-path="url(#clip24)" clip-rule="nonzero">
<path style=" stroke:none;fill-rule:nonzero;fill:rgb(12.548828%,12.548828%,12.548828%);fill-opacity:1;" d="M 502.910156 496.949219 C 503.375 496.945312 503.84375 496.945312 504.308594 496.941406 L 561.347656 497.652344 L 561.347656 495.804688 C 550.320312 495.679688 524.128906 495.429688 502.910156 495.277344 L 502.910156 496.949219 "/>
</g>
<g clip-path="url(#clip25)" clip-rule="nonzero">
<path style=" stroke:none;fill-rule:nonzero;fill:rgb(12.548828%,12.548828%,12.548828%);fill-opacity:1;" d="M 544.84375 348.359375 C 547.726562 348.234375 549.4375 348.164062 549.511719 348.167969 C 553.457031 348.328125 557.402344 348.480469 561.347656 348.601562 L 561.347656 345.9375 C 557.246094 346.023438 551.996094 346.160156 544.84375 346.347656 L 544.84375 348.359375 "/>
</g>
<g clip-path="url(#clip26)" clip-rule="nonzero">
<path style=" stroke:none;fill-rule:nonzero;fill:rgb(12.548828%,12.548828%,12.548828%);fill-opacity:1;" d="M 531.226562 191.835938 C 521.789062 191.828125 512.347656 191.675781 502.910156 191.679688 L 502.910156 194.105469 C 521.902344 194.140625 542.777344 194.546875 561.347656 195.035156 L 561.347656 192.632812 C 550.378906 192.171875 539.457031 191.804688 531.226562 191.835938 "/>
</g>
<g clip-path="url(#clip27)" clip-rule="nonzero">
<path style=" stroke:none;fill-rule:nonzero;fill:rgb(12.548828%,12.548828%,12.548828%);fill-opacity:1;" d="M 502.910156 176.183594 L 502.910156 178.308594 C 503.957031 178.265625 505.003906 178.226562 506.050781 178.183594 C 506.378906 178.167969 536.773438 179.488281 561.347656 180.558594 L 561.347656 178.480469 C 542.640625 178.050781 528.765625 176.820312 518.222656 176.5625 C 512.074219 176.410156 507.070312 176.285156 502.910156 176.183594 "/>
</g>
<g clip-path="url(#clip28)" clip-rule="nonzero">
<path style=" stroke:none;fill-rule:nonzero;fill:rgb(12.548828%,12.548828%,12.548828%);fill-opacity:1;" d="M 502.910156 91.027344 C 509.285156 91.175781 517.570312 91.378906 529.621094 91.582031 C 540.601562 91.765625 551.578125 91.628906 561.347656 91.664062 L 561.347656 90.074219 C 541.480469 89.636719 521.746094 89.339844 502.910156 89.351562 L 502.910156 91.027344 "/>
</g>
<g clip-path="url(#clip29)" clip-rule="nonzero">
<path style=" stroke:none;fill-rule:nonzero;fill:rgb(12.548828%,12.548828%,12.548828%);fill-opacity:1;" d="M 502.910156 398.757812 C 509.285156 398.90625 517.570312 399.105469 529.621094 399.308594 C 540.601562 399.496094 551.578125 399.359375 561.347656 399.390625 L 561.347656 397.800781 C 541.480469 397.363281 521.746094 397.066406 502.910156 397.074219 L 502.910156 398.757812 "/>
</g>
<g clip-path="url(#clip30)" clip-rule="nonzero">
<path style=" stroke:none;fill-rule:nonzero;fill:rgb(12.548828%,12.548828%,12.548828%);fill-opacity:1;" d="M 502.910156 162.878906 L 502.910156 164.898438 C 515.230469 165.046875 531.59375 165.648438 561.347656 166.789062 L 561.347656 164.699219 C 558.097656 164.5625 554.847656 164.398438 551.601562 164.160156 C 535.226562 162.972656 518.117188 162.722656 502.910156 162.878906 "/>
</g>
<g clip-path="url(#clip31)" clip-rule="nonzero">
<path style=" stroke:none;fill-rule:nonzero;fill:rgb(12.548828%,12.548828%,12.548828%);fill-opacity:1;" d="M 504.851562 137.085938 C 522.726562 137.445312 546.429688 138.25 561.347656 138.804688 L 561.347656 136.800781 C 531.320312 135.519531 515.84375 135.039062 504.851562 134.945312 L 504.851562 137.085938 "/>
</g>
<g clip-path="url(#clip32)" clip-rule="nonzero">
<path style=" stroke:none;fill-rule:nonzero;fill:rgb(12.548828%,12.548828%,12.548828%);fill-opacity:1;" d="M 502.910156 98.550781 L 502.910156 100.546875 C 529.085938 100.289062 537.023438 101.5625 561.347656 102.765625 L 561.347656 100.734375 C 522.429688 99.199219 536.035156 97.746094 502.910156 98.550781 "/>
</g>
<g clip-path="url(#clip33)" clip-rule="nonzero">
<path style=" stroke:none;fill-rule:nonzero;fill:rgb(12.548828%,12.548828%,12.548828%);fill-opacity:1;" d="M 504.851562 147.023438 L 504.851562 149.175781 C 510.796875 149.171875 515.457031 149.175781 515.859375 149.1875 C 528.917969 149.570312 541.984375 149.757812 555.042969 150.429688 C 557.144531 150.539062 559.246094 150.652344 561.347656 150.777344 L 561.347656 148.964844 C 545.402344 147.941406 529.453125 147.113281 513.476562 146.800781 C 513.402344 146.800781 510.082031 146.886719 504.851562 147.023438 "/>
</g>
<g clip-path="url(#clip34)" clip-rule="nonzero">
<path style=" stroke:none;fill-rule:nonzero;fill:rgb(12.548828%,12.548828%,12.548828%);fill-opacity:1;" d="M 502.910156 119.679688 L 502.910156 121.433594 C 507.65625 121.535156 514.15625 121.898438 530.988281 122.425781 C 541.128906 122.714844 551.246094 123.277344 561.347656 124.035156 L 561.347656 121.394531 C 540.542969 119.800781 521.984375 119.355469 502.910156 119.679688 "/>
</g>
<g clip-path="url(#clip35)" clip-rule="nonzero">
<path style=" stroke:none;fill-rule:nonzero;fill:rgb(12.548828%,12.548828%,12.548828%);fill-opacity:1;" d="M 502.910156 109.414062 L 502.910156 111.386719 C 514.183594 111.480469 527.078125 111.742188 537.683594 112.269531 C 545.570312 112.660156 553.460938 112.945312 561.347656 113.292969 L 561.347656 111.507812 C 556.179688 111.242188 551.003906 111.003906 545.828125 110.8125 C 523.910156 110.007812 517.226562 109.304688 502.910156 109.414062 "/>
</g>
<g clip-path="url(#clip36)" clip-rule="nonzero">
<path style=" stroke:none;fill-rule:nonzero;fill:rgb(12.548828%,12.548828%,12.548828%);fill-opacity:1;" d="M 507.769531 505.757812 C 506.148438 505.753906 504.53125 505.75 502.910156 505.75 L 502.910156 507.960938 C 522.394531 508.078125 541.871094 508.421875 561.347656 509.21875 L 561.347656 507.113281 C 558.027344 506.957031 554.707031 506.796875 551.390625 506.621094 C 536.878906 505.84375 522.308594 505.765625 507.769531 505.757812 "/>
</g>
<g clip-path="url(#clip37)" clip-rule="nonzero">
<path style=" stroke:none;fill-rule:nonzero;fill:rgb(12.548828%,12.548828%,12.548828%);fill-opacity:1;" d="M 502.910156 543.101562 L 502.910156 545.183594 C 508.921875 545.089844 514.933594 545.035156 520.949219 545.074219 C 534.417969 545.15625 547.894531 545.148438 561.347656 545.683594 L 561.347656 543.65625 C 548.707031 543.234375 536.058594 543.019531 523.402344 542.964844 C 516.570312 542.9375 509.742188 542.996094 502.910156 543.101562 "/>
</g>
<g clip-path="url(#clip38)" clip-rule="nonzero">
<path style=" stroke:none;fill-rule:nonzero;fill:rgb(12.548828%,12.548828%,12.548828%);fill-opacity:1;" d="M 502.910156 522.558594 L 502.910156 524.949219 C 509.164062 524.910156 515.417969 524.863281 521.667969 524.789062 C 534.902344 524.621094 548.128906 524.675781 561.347656 524.867188 L 561.347656 522.582031 C 560.191406 522.5625 559.035156 522.539062 557.875 522.523438 C 539.558594 522.28125 521.234375 522.425781 502.910156 522.558594 "/>
</g>
<g clip-path="url(#clip39)" clip-rule="nonzero">
<path style=" stroke:none;fill-rule:nonzero;fill:rgb(12.548828%,12.548828%,12.548828%);fill-opacity:1;" d="M 507.0625 533.566406 C 505.679688 533.59375 504.292969 533.613281 502.910156 533.628906 L 502.910156 535.640625 C 514.816406 535.519531 526.726562 535.308594 538.632812 535.21875 C 546.207031 535.164062 553.777344 535.226562 561.347656 535.371094 L 561.347656 533.4375 C 554.191406 533.234375 547.035156 533.136719 539.875 533.183594 C 528.941406 533.25 518 533.347656 507.0625 533.566406 "/>
</g>
<path style=" stroke:none;fill-rule:nonzero;fill:rgb(12.548828%,12.548828%,12.548828%);fill-opacity:1;" d="M 502.910156 507.960938 C 496.230469 507.917969 489.550781 507.902344 482.867188 507.902344 C 489.550781 507.902344 496.230469 507.917969 502.910156 507.960938 "/>
<path style=" stroke:none;fill-rule:nonzero;fill:rgb(12.548828%,12.548828%,12.548828%);fill-opacity:1;" d="M 482.867188 507.902344 C 457.59375 507.90625 432.421875 509.421875 407.234375 510.929688 C 432.421875 509.425781 457.59375 507.90625 482.867188 507.902344 "/>
<path style=" stroke:none;fill-rule:nonzero;fill:rgb(12.548828%,12.548828%,12.548828%);fill-opacity:1;" d="M 155.671875 520.082031 C 148.890625 519.539062 140.96875 518.875 131.675781 518.074219 C 111.453125 516.335938 91.238281 514.535156 70.992188 513.078125 C 91.238281 514.535156 111.453125 516.335938 131.675781 518.074219 C 140.96875 518.875 148.890625 519.539062 155.671875 520.082031 C 218.066406 525.105469 184.132812 520.101562 237.566406 519.144531 C 184.132812 520.101562 218.066406 525.105469 155.671875 520.082031 "/>
<path style=" stroke:none;fill-rule:nonzero;fill:rgb(12.548828%,12.548828%,12.548828%);fill-opacity:1;" d="M 302.628906 516.925781 C 321.238281 516.226562 339.835938 515.269531 358.398438 513.746094 C 370.578125 512.746094 382.800781 512.210938 395.019531 511.59375 C 382.800781 512.210938 370.578125 512.746094 358.398438 513.746094 C 339.835938 515.269531 321.238281 516.226562 302.628906 516.925781 "/>
<g clip-path="url(#clip40)" clip-rule="nonzero">
<path style=" stroke:none;fill-rule:nonzero;fill:rgb(12.548828%,12.548828%,12.548828%);fill-opacity:1;" d="M 54.113281 511.949219 C 37.230469 510.898438 20.332031 510.074219 3.421875 509.339844 C 2.398438 509.296875 1.371094 509.257812 0.347656 509.21875 C 1.371094 509.257812 2.398438 509.296875 3.421875 509.34375 C 20.332031 510.074219 37.230469 510.898438 54.113281 511.949219 "/>
</g>
<g clip-path="url(#clip41)" clip-rule="nonzero">
<path style=" stroke:none;fill-rule:nonzero;fill:rgb(12.548828%,12.548828%,12.548828%);fill-opacity:1;" d="M 486.785156 240.261719 L 486.785156 242.746094 C 491.945312 242.644531 497.113281 242.585938 502.28125 242.617188 C 521.980469 242.734375 541.664062 243.011719 561.347656 243.734375 L 561.347656 241.023438 C 549.960938 240.5 538.546875 240.371094 527.148438 240.292969 C 513.695312 240.203125 500.234375 240.082031 486.785156 240.261719 "/>
</g>
<g clip-path="url(#clip42)" clip-rule="nonzero">
<path style=" stroke:none;fill-rule:nonzero;fill:rgb(12.548828%,12.548828%,12.548828%);fill-opacity:1;" d="M 513.277344 411.574219 C 504.453125 411.722656 495.613281 411.601562 486.785156 411.535156 L 486.785156 413.929688 C 491.074219 413.949219 495.367188 413.96875 499.65625 413.972656 C 514.765625 413.996094 529.875 413.722656 544.984375 413.6875 C 550.441406 413.671875 555.894531 413.734375 561.347656 413.847656 L 561.347656 411.542969 C 556.316406 411.40625 551.28125 411.328125 546.246094 411.335938 C 535.253906 411.347656 524.265625 411.390625 513.277344 411.574219 "/>
</g>
<g clip-path="url(#clip43)" clip-rule="nonzero">
<path style=" stroke:none;fill-rule:nonzero;fill:rgb(12.548828%,12.548828%,12.548828%);fill-opacity:1;" d="M 486.785156 233.9375 C 500.386719 233.90625 513.691406 234.027344 524.789062 234.351562 C 536.976562 234.707031 549.160156 234.957031 561.347656 235.175781 L 561.347656 233.492188 C 546.714844 233.089844 513.890625 232.285156 486.785156 231.996094 L 486.785156 233.9375 "/>
</g>
<g clip-path="url(#clip44)" clip-rule="nonzero">
<path style=" stroke:none;fill-rule:nonzero;fill:rgb(12.548828%,12.548828%,12.548828%);fill-opacity:1;" d="M 460.980469 208.058594 L 460.980469 210.289062 C 482.011719 210.222656 503.621094 210.578125 518.648438 211.191406 C 521.808594 211.324219 524.972656 211.179688 527.835938 211.171875 C 539.066406 211.507812 550.226562 211.957031 561.347656 212.335938 L 561.347656 209.8125 C 538.003906 209.164062 514.65625 208.445312 491.3125 207.914062 C 483.960938 207.75 473.101562 207.835938 460.980469 208.058594 "/>
</g>
<g clip-path="url(#clip45)" clip-rule="nonzero">
<path style=" stroke:none;fill-rule:nonzero;fill:rgb(12.548828%,12.548828%,12.548828%);fill-opacity:1;" d="M 460.980469 217.964844 L 460.980469 220.019531 L 511.242188 220.585938 C 527.945312 220.710938 544.648438 220.867188 561.347656 221.140625 L 561.347656 219.207031 C 538.898438 218.757812 516.445312 218.523438 493.992188 218.246094 C 489.609375 218.195312 476.269531 218.074219 460.980469 217.964844 "/>
</g>
<g clip-path="url(#clip46)" clip-rule="nonzero">
<path style=" stroke:none;fill-rule:nonzero;fill:rgb(12.548828%,12.548828%,12.548828%);fill-opacity:1;" d="M 90.085938 249.457031 C 110.28125 251.25 130.445312 253.441406 150.617188 255.558594 C 176.140625 258.25 185.324219 259.21875 191.140625 259.226562 C 195.730469 259.234375 198.210938 258.640625 204.988281 257.832031 C 222.398438 255.746094 239.875 254.351562 257.378906 254.09375 C 272.855469 253.863281 288.296875 253.003906 303.753906 252.546875 C 328.527344 251.8125 353.296875 250.792969 378.015625 248.601562 C 394.230469 247.164062 410.523438 246.679688 426.777344 245.652344 C 446.765625 244.390625 466.753906 243.140625 486.785156 242.746094 L 486.785156 240.261719 C 474.953125 240.421875 463.125 240.816406 451.316406 241.679688 C 422.425781 243.792969 393.464844 244.515625 364.601562 247.1875 C 343.28125 249.164062 321.855469 249.355469 300.476562 250.316406 C 279.394531 251.265625 258.292969 251.800781 237.210938 252.863281 C 204.679688 254.5 202.675781 256.84375 190.574219 256.664062 C 186.425781 256.601562 181.09375 256.246094 172.9375 255.464844 C 156.65625 253.90625 140.410156 251.960938 124.109375 250.527344 C 108.929688 249.191406 93.757812 247.691406 78.597656 246.148438 C 55.667969 243.8125 32.648438 243.109375 9.675781 241.546875 C 6.570312 241.335938 3.460938 241.167969 0.347656 241.023438 L 0.347656 243.734375 C 7.789062 244.007812 15.226562 244.339844 22.667969 244.757812 C 45.164062 246.015625 67.644531 247.460938 90.085938 249.457031 "/>
</g>
<g clip-path="url(#clip47)" clip-rule="nonzero">
<path style=" stroke:none;fill-rule:nonzero;fill:rgb(12.548828%,12.548828%,12.548828%);fill-opacity:1;" d="M 46.390625 289.488281 C 65.484375 290.71875 84.542969 292.429688 103.621094 293.867188 C 120.039062 295.105469 136.492188 295.917969 152.878906 297.519531 C 183.285156 300.496094 194.574219 301.445312 208.839844 301.363281 C 219.28125 301.304688 231.320312 300.695312 253.621094 299.917969 C 289.015625 298.691406 324.292969 295.550781 359.617188 293.191406 C 382.320312 291.683594 405.027344 290.253906 427.773438 289.816406 C 452.816406 289.335938 477.867188 289.226562 502.910156 288.972656 L 502.910156 286.523438 C 484.265625 286.832031 465.613281 286.9375 446.964844 287.09375 C 427.226562 287.257812 407.511719 287.941406 387.808594 289.078125 C 371.992188 289.996094 356.179688 290.78125 340.390625 292.15625 C 317.640625 294.132812 294.859375 295.671875 272.054688 296.675781 C 260.144531 297.203125 232.914062 298.488281 208.117188 298.460938 C 197.085938 298.445312 186.535156 298.167969 178.027344 297.441406 C 163.28125 296.191406 148.546875 294.675781 133.785156 293.484375 C 115.230469 291.992188 96.640625 290.90625 78.09375 289.273438 C 53.382812 287.09375 28.628906 286.097656 3.851562 285.78125 C 2.679688 285.765625 1.515625 285.757812 0.347656 285.75 L 0.347656 288.199219 C 0.683594 288.207031 1.015625 288.207031 1.355469 288.210938 C 16.371094 288.4375 31.402344 288.527344 46.390625 289.488281 "/>
</g>
<g clip-path="url(#clip48)" clip-rule="nonzero">
<path style=" stroke:none;fill-rule:nonzero;fill:rgb(12.548828%,12.548828%,12.548828%);fill-opacity:1;" d="M 171.070312 269.058594 C 189.613281 269.9375 208.171875 272.039062 226.714844 271.175781 C 245.066406 270.316406 248 272.035156 261.257812 271.058594 C 267.289062 270.617188 278.308594 269.601562 302.097656 269.429688 C 316.359375 269.335938 330.652344 269.550781 344.839844 268.054688 C 367.710938 265.652344 390.625 264.1875 413.585938 263.308594 C 443.351562 262.171875 473.125 261.769531 502.910156 261.679688 L 502.910156 259.203125 C 499.832031 259.238281 496.757812 259.277344 493.679688 259.308594 C 473.816406 259.527344 453.949219 259.722656 434.085938 260.09375 C 425.785156 260.25 417.503906 261.007812 409.203125 261.1875 C 389.71875 261.617188 370.285156 262.878906 350.917969 264.96875 C 336.605469 266.511719 322.246094 267.117188 307.921875 266.945312 C 261.207031 266.398438 272.996094 269.039062 243.980469 269.019531 C 237.453125 269.015625 228.863281 268.878906 217.082031 268.539062 C 203.863281 268.164062 190.644531 267.808594 177.4375 267.183594 C 161.695312 266.445312 145.957031 265.378906 130.214844 264.546875 C 117.734375 263.894531 105.242188 263.554688 92.773438 262.765625 C 72.832031 261.5 52.882812 260.25 32.917969 259.695312 C 22.0625 259.394531 11.207031 259.25 0.347656 259.167969 L 0.347656 261.855469 C 30.050781 261.894531 59.699219 263.097656 89.351562 264.765625 C 116.585938 266.296875 143.824219 267.769531 171.070312 269.058594 "/>
</g>
<g clip-path="url(#clip49)" clip-rule="nonzero">
<path style=" stroke:none;fill-rule:nonzero;fill:rgb(12.548828%,12.548828%,12.548828%);fill-opacity:1;" d="M 112.78125 334.113281 C 126.964844 335.605469 141.257812 335.390625 155.519531 335.484375 C 179.308594 335.65625 190.328125 336.671875 196.359375 337.117188 C 209.621094 338.089844 212.554688 336.371094 230.902344 337.230469 C 249.445312 338.097656 268.007812 335.996094 286.546875 335.113281 C 313.792969 333.824219 341.035156 332.351562 368.265625 330.820312 C 399.089844 329.085938 429.914062 327.84375 460.796875 327.894531 C 478.21875 327.925781 495.644531 327.6875 513.070312 327.726562 C 513.949219 327.726562 514.832031 327.734375 515.707031 327.734375 L 515.707031 325.257812 C 505.464844 325.140625 495.21875 325.035156 484.976562 325.082031 C 464.882812 325.171875 444.785156 325.195312 424.699219 325.75 C 404.734375 326.304688 384.789062 327.554688 364.847656 328.820312 C 352.378906 329.613281 339.882812 329.949219 327.40625 330.601562 C 311.660156 331.4375 295.925781 332.5 280.179688 333.238281 C 266.972656 333.863281 253.753906 334.21875 240.535156 334.59375 C 228.753906 334.933594 220.167969 335.070312 213.640625 335.078125 C 184.625 335.09375 196.410156 332.453125 149.699219 333 C 135.371094 333.171875 121.015625 332.566406 106.699219 331.027344 C 87.332031 328.933594 67.898438 327.671875 48.417969 327.242188 C 40.117188 327.0625 31.832031 326.308594 23.53125 326.148438 C 15.804688 326.003906 8.074219 325.890625 0.347656 325.789062 L 0.347656 328.175781 C 14.910156 328.429688 29.472656 328.804688 44.03125 329.363281 C 66.992188 330.242188 89.90625 331.707031 112.78125 334.113281 "/>
</g>
<g clip-path="url(#clip50)" clip-rule="nonzero">
<path style=" stroke:none;fill-rule:nonzero;fill:rgb(12.548828%,12.548828%,12.548828%);fill-opacity:1;" d="M 68.0625 304.011719 C 92.070312 305.195312 116.042969 306.949219 140.039062 308.300781 C 164.546875 309.671875 189.058594 310.9375 213.578125 312.097656 C 264.195312 314.5 234.273438 316.171875 322.984375 312.394531 C 366.566406 310.542969 405.746094 306.320312 474.417969 304.507812 C 494.667969 303.96875 514.914062 303.265625 535.167969 302.8125 L 535.167969 300.140625 C 527.664062 300.351562 520.167969 300.941406 512.683594 300.964844 C 498.304688 301.015625 483.960938 302.105469 469.585938 302.199219 C 458.40625 302.273438 447.242188 303.46875 436.054688 303.777344 C 423.933594 304.117188 411.832031 304.734375 399.730469 305.449219 C 376.5625 306.8125 353.394531 308.277344 330.226562 309.726562 C 254.25 314.488281 249.574219 311.476562 232.292969 310.523438 C 204.605469 308.984375 176.90625 307.851562 149.222656 306.386719 C 124.105469 305.058594 98.996094 303.558594 73.882812 302.050781 C 63.222656 301.402344 52.546875 301.371094 41.890625 300.789062 C 28.042969 300.03125 14.195312 300.046875 0.347656 300.085938 L 0.347656 302.410156 C 22.929688 302.300781 45.507812 302.894531 68.0625 304.011719 "/>
</g>
<g clip-path="url(#clip51)" clip-rule="nonzero">
<path style=" stroke:none;fill-rule:nonzero;fill:rgb(12.548828%,12.548828%,12.548828%);fill-opacity:1;" d="M 54.257812 276.339844 C 68.429688 277.058594 82.613281 277.65625 96.78125 278.46875 C 111.5625 279.316406 126.328125 280.664062 141.121094 281.253906 C 151.335938 281.667969 213.277344 284.34375 228.746094 283.617188 C 259.265625 282.175781 289.804688 281.15625 320.316406 279.585938 C 336.742188 278.742188 353.125 277.011719 369.546875 276.15625 C 397.304688 274.707031 425.09375 274.933594 452.875 275.023438 C 469.554688 275.082031 486.234375 275.175781 502.910156 275.171875 L 502.910156 272.808594 C 498.515625 272.792969 494.121094 272.773438 489.726562 272.796875 C 472.691406 272.886719 455.65625 272.753906 438.625 272.722656 C 413.527344 272.683594 388.441406 272.660156 363.375 274.199219 C 340.03125 275.632812 316.753906 277.925781 293.347656 278.542969 C 279.277344 278.914062 265.191406 280 251.105469 280.433594 C 192.011719 282.277344 230.425781 281.367188 166.140625 280.011719 C 145.003906 279.558594 123.941406 277.792969 102.839844 276.753906 C 89.070312 276.074219 75.3125 275.242188 61.542969 274.566406 C 50.535156 274.019531 39.515625 273.648438 28.503906 273.101562 C 19.125 272.640625 9.738281 272.375 0.347656 272.363281 L 0.347656 274.691406 C 18.328125 274.699219 36.296875 275.429688 54.257812 276.339844 "/>
</g>
<g clip-path="url(#clip52)" clip-rule="nonzero">
<path style=" stroke:none;fill-rule:nonzero;fill:rgb(12.548828%,12.548828%,12.548828%);fill-opacity:1;" d="M 96.09375 457.609375 C 112.628906 458.777344 129.199219 459.515625 145.707031 461.042969 C 179.003906 464.136719 198.523438 465.511719 211.851562 466.03125 C 226.417969 466.59375 233.582031 466.128906 243.246094 465.746094 C 278.878906 464.332031 314.394531 460.988281 349.949219 458.445312 C 372.804688 456.8125 395.671875 455.261719 418.566406 454.707031 C 444.671875 454.078125 470.785156 453.847656 496.894531 453.445312 C 498.898438 453.398438 500.90625 453.347656 502.910156 453.296875 L 502.910156 450.8125 C 481.238281 451.363281 459.554688 451.578125 437.878906 451.867188 C 418.007812 452.132812 398.160156 452.921875 378.320312 454.164062 C 362.398438 455.160156 346.476562 456.035156 330.585938 457.492188 C 307.6875 459.601562 284.75 461.261719 261.792969 462.390625 C 239.03125 463.5 229.449219 464.253906 211.867188 463.5625 C 202.011719 463.175781 189.644531 462.332031 171.035156 460.84375 C 156.175781 459.65625 141.332031 458.203125 126.46875 457.082031 C 107.773438 455.660156 89.046875 454.660156 70.363281 453.109375 C 47.054688 451.171875 23.710938 450.285156 0.347656 450.019531 L 0.347656 452.492188 C 13.050781 452.605469 25.757812 452.734375 38.4375 453.484375 C 57.667969 454.628906 76.871094 456.257812 96.09375 457.609375 "/>
</g>
<g clip-path="url(#clip53)" clip-rule="nonzero">
<path style=" stroke:none;fill-rule:nonzero;fill:rgb(12.548828%,12.548828%,12.548828%);fill-opacity:1;" d="M 150.859375 371.78125 C 169.449219 372.652344 188.054688 373.136719 206.644531 373.863281 C 245.164062 375.375 227.085938 372.828125 280.777344 372.421875 C 295.074219 372.316406 309.402344 372.523438 323.628906 371.015625 C 346.554688 368.589844 369.527344 367.105469 392.550781 366.21875 C 423.269531 365.015625 454 364.601562 484.746094 364.515625 C 490.800781 364.496094 496.855469 364.515625 502.910156 364.542969 L 502.910156 361.851562 C 492.886719 361.894531 482.867188 362.039062 472.847656 362.15625 C 452.929688 362.382812 433.011719 362.59375 413.097656 362.976562 C 404.777344 363.140625 396.472656 363.902344 388.15625 364.085938 C 368.621094 364.53125 349.136719 365.8125 329.71875 367.914062 C 315.371094 369.472656 300.976562 370.082031 286.613281 369.921875 C 234.351562 369.351562 260.664062 373.019531 196.992188 371.230469 C 183.738281 370.863281 170.484375 370.515625 157.242188 369.898438 C 141.453125 369.167969 125.683594 368.109375 109.890625 367.285156 C 97.382812 366.632812 84.859375 366.304688 72.355469 365.519531 C 52.359375 364.261719 32.363281 363.019531 12.34375 362.476562 C 8.34375 362.367188 4.347656 362.285156 0.347656 362.214844 L 0.347656 364.847656 C 23.222656 365.257812 46.074219 366.257812 68.925781 367.523438 C 96.234375 369.039062 123.546875 370.5 150.859375 371.78125 "/>
</g>
<g clip-path="url(#clip54)" clip-rule="nonzero">
<path style=" stroke:none;fill-rule:nonzero;fill:rgb(12.548828%,12.548828%,12.548828%);fill-opacity:1;" d="M 97.292969 442.988281 C 111.539062 443.71875 125.789062 444.320312 140.027344 445.140625 C 154.882812 446.003906 169.71875 447.355469 184.582031 447.960938 C 200.378906 448.597656 228.480469 449.777344 249.105469 450.183594 C 257.914062 450.359375 265.355469 450.386719 269.894531 450.175781 C 300.558594 448.738281 331.246094 447.726562 361.910156 446.15625 C 378.414062 445.3125 394.878906 443.578125 411.382812 442.726562 C 439.273438 441.28125 467.203125 441.515625 495.121094 441.617188 C 497.714844 441.628906 500.316406 441.640625 502.910156 441.652344 L 502.910156 439.378906 C 495.539062 439.347656 488.167969 439.316406 480.800781 439.300781 C 455.574219 439.246094 430.371094 439.21875 405.179688 440.757812 C 381.722656 442.1875 358.328125 444.488281 334.808594 445.101562 C 320.671875 445.472656 306.511719 446.554688 292.359375 446.988281 C 266.445312 447.789062 260.503906 448.125 256.433594 448.125 C 251.117188 448.128906 248.976562 447.5625 209.726562 446.710938 C 188.488281 446.257812 167.320312 444.476562 146.113281 443.421875 C 132.28125 442.734375 118.453125 441.898438 104.617188 441.210938 C 93.554688 440.65625 82.480469 440.28125 71.417969 439.730469 C 60.875 439.207031 50.324219 438.914062 39.769531 438.964844 C 28.792969 439.019531 17.816406 439.105469 6.839844 439.328125 C 4.675781 439.375 2.511719 439.398438 0.347656 439.414062 L 0.347656 441.730469 C 13.070312 441.636719 25.792969 441.398438 38.515625 441.320312 C 58.125 441.195312 77.714844 441.992188 97.292969 442.988281 "/>
</g>
<g clip-path="url(#clip55)" clip-rule="nonzero">
<path style=" stroke:none;fill-rule:nonzero;fill:rgb(12.548828%,12.548828%,12.548828%);fill-opacity:1;" d="M 76.390625 16.246094 C 90.640625 16.894531 104.902344 17.433594 119.15625 18.160156 C 134.019531 18.917969 148.867188 20.109375 163.742188 20.652344 C 253.367188 23.890625 232.613281 22.726562 248.640625 22.089844 C 279.335938 20.875 310.050781 20.023438 340.742188 18.695312 C 357.261719 17.976562 373.742188 16.492188 390.261719 15.765625 C 418.179688 14.539062 446.128906 14.773438 474.070312 14.890625 C 483.683594 14.929688 493.296875 14.984375 502.910156 15.027344 L 502.910156 13 C 488.519531 13 474.128906 12.902344 459.742188 12.863281 C 434.496094 12.792969 409.269531 12.742188 384.054688 14.050781 C 360.578125 15.273438 337.160156 17.242188 313.621094 17.75 C 299.464844 18.058594 285.292969 18.984375 271.132812 19.347656 C 195.867188 21.273438 278.246094 21.363281 188.910156 19.597656 C 167.65625 19.175781 146.472656 17.605469 125.246094 16.675781 C 111.402344 16.0625 97.5625 15.324219 83.71875 14.710938 C 72.644531 14.21875 61.5625 13.878906 50.492188 13.390625 C 39.941406 12.925781 29.375 12.660156 18.816406 12.695312 C 12.660156 12.714844 6.503906 12.746094 0.347656 12.800781 L 0.347656 14.875 C 6.085938 14.820312 11.820312 14.761719 17.558594 14.734375 C 37.183594 14.648438 56.792969 15.359375 76.390625 16.246094 "/>
</g>
<g clip-path="url(#clip56)" clip-rule="nonzero">
<path style=" stroke:none;fill-rule:nonzero;fill:rgb(12.548828%,12.548828%,12.548828%);fill-opacity:1;" d="M 54.558594 340.367188 C 71.078125 341.09375 87.558594 342.582031 104.078125 343.296875 C 134.769531 344.625 165.484375 345.476562 196.179688 346.695312 C 212.207031 347.324219 191.457031 348.492188 281.078125 345.25 C 295.949219 344.714844 310.800781 343.523438 325.667969 342.761719 C 339.917969 342.035156 354.179688 341.496094 368.433594 340.847656 C 388.03125 339.960938 407.636719 339.253906 427.261719 339.339844 C 442.367188 339.402344 457.472656 339.671875 472.578125 339.691406 C 482.691406 339.699219 492.800781 339.671875 502.910156 339.628906 L 502.910156 337.597656 C 500.167969 337.597656 497.425781 337.605469 494.683594 337.59375 C 482.785156 337.554688 470.863281 337.773438 458.96875 337.578125 C 447.980469 337.394531 436.988281 337.332031 426.003906 337.296875 C 415.445312 337.257812 404.882812 337.527344 394.328125 337.992188 C 383.257812 338.484375 372.175781 338.820312 361.105469 339.308594 C 347.257812 339.921875 333.421875 340.664062 319.574219 341.273438 C 298.351562 342.207031 277.167969 343.777344 255.914062 344.199219 C 166.574219 345.964844 248.953125 345.875 173.6875 343.945312 C 159.527344 343.582031 145.355469 342.660156 131.203125 342.355469 C 107.660156 341.84375 84.246094 339.871094 60.769531 338.652344 C 40.636719 337.605469 20.496094 337.433594 0.347656 337.441406 L 0.347656 339.394531 C 18.421875 339.394531 36.496094 339.574219 54.558594 340.367188 "/>
</g>
<g clip-path="url(#clip57)" clip-rule="nonzero">
<path style=" stroke:none;fill-rule:nonzero;fill:rgb(12.548828%,12.548828%,12.548828%);fill-opacity:1;" d="M 101.148438 391.234375 C 117.46875 392.429688 133.828125 393.199219 150.121094 394.757812 C 184.671875 398.066406 198.714844 399.296875 211.128906 399.472656 C 222.160156 399.625 231.902344 398.945312 253.589844 398.148438 C 288.773438 396.851562 323.835938 393.648438 358.945312 391.226562 C 381.511719 389.683594 404.085938 388.207031 426.691406 387.726562 C 452.09375 387.179688 477.503906 387.019531 502.910156 386.707031 L 502.910156 384.253906 C 483.863281 384.621094 464.8125 384.773438 445.761719 384.976562 C 426.148438 385.183594 406.546875 385.90625 386.960938 387.078125 C 371.242188 388.023438 355.523438 388.839844 339.828125 390.238281 C 317.222656 392.253906 294.578125 393.835938 271.910156 394.886719 C 256.492188 395.597656 241.070312 396.367188 225.621094 396.496094 C 218.433594 396.554688 217.074219 397.023438 211.878906 397.003906 C 206.683594 396.988281 197.652344 396.488281 175.121094 394.625 C 160.453125 393.414062 145.808594 391.9375 131.132812 390.789062 C 112.683594 389.339844 94.203125 388.304688 75.761719 386.71875 C 51.191406 384.605469 26.582031 383.675781 1.949219 383.410156 C 1.414062 383.40625 0.878906 383.40625 0.347656 383.402344 L 0.347656 385.847656 C 14.988281 386.03125 29.632812 386.101562 44.246094 387.007812 C 63.226562 388.183594 82.179688 389.84375 101.148438 391.234375 "/>
</g>
<g clip-path="url(#clip58)" clip-rule="nonzero">
<path style=" stroke:none;fill-rule:nonzero;fill:rgb(12.548828%,12.548828%,12.548828%);fill-opacity:1;" d="M 110.640625 431.179688 C 137.835938 432.703125 165.039062 434.164062 192.242188 435.453125 C 210.753906 436.332031 229.289062 436.820312 247.8125 437.554688 C 260.695312 438.066406 267.089844 438.25 270.628906 438.238281 C 281.257812 438.1875 280.027344 437.3125 323.882812 435.898438 C 338.121094 435.433594 352.394531 436.011719 366.5625 434.519531 C 389.398438 432.105469 412.285156 430.644531 435.210938 429.765625 C 457.773438 428.894531 480.339844 428.453125 502.910156 428.25 L 502.910156 425.894531 C 487.167969 426.066406 471.421875 426.253906 455.679688 426.546875 C 447.390625 426.707031 439.121094 427.464844 430.832031 427.644531 C 411.378906 428.078125 391.972656 429.34375 372.632812 431.433594 C 358.34375 432.972656 344.003906 433.578125 329.695312 433.410156 C 290.257812 432.953125 293.617188 435.042969 271.425781 435.359375 C 264.03125 435.46875 253.796875 435.378906 238.191406 434.929688 C 224.992188 434.554688 211.792969 434.199219 198.601562 433.578125 C 182.878906 432.847656 167.167969 431.78125 151.441406 430.953125 C 138.984375 430.300781 126.503906 429.96875 114.058594 429.183594 C 94.140625 427.917969 74.222656 426.671875 54.285156 426.121094 C 36.316406 425.628906 18.328125 425.566406 0.347656 425.492188 L 0.347656 428.230469 C 6.3125 428.261719 12.277344 428.285156 18.242188 428.273438 C 49.082031 428.214844 79.863281 429.457031 110.640625 431.179688 "/>
</g>
<g clip-path="url(#clip59)" clip-rule="nonzero">
<path style=" stroke:none;fill-rule:nonzero;fill:rgb(12.548828%,12.548828%,12.548828%);fill-opacity:1;" d="M 87.261719 381.988281 C 111.714844 383.449219 136.175781 384.792969 160.648438 386.039062 C 179.199219 386.984375 185.890625 387.539062 192.898438 387.644531 C 203.617188 387.800781 215.078125 386.902344 270.910156 384.722656 C 306.128906 383.351562 338.492188 380.429688 385.570312 378.535156 C 396.820312 378.082031 408.910156 377.691406 422.082031 377.390625 C 447.5 376.808594 472.917969 375.957031 498.34375 375.671875 C 499.867188 375.65625 501.386719 375.652344 502.910156 375.640625 L 502.910156 373.28125 C 498.226562 373.273438 493.542969 373.253906 488.859375 373.195312 C 479.328125 373.078125 469.800781 373.996094 460.285156 373.992188 C 445.933594 373.992188 431.617188 375.027344 417.265625 375.070312 C 406.109375 375.105469 394.960938 376.257812 383.796875 376.527344 C 371.699219 376.820312 359.617188 377.390625 347.535156 378.0625 C 324.402344 379.34375 301.277344 380.722656 278.152344 382.085938 C 274.136719 382.324219 222.171875 385.089844 191.78125 384.875 C 187.007812 384.84375 182.765625 384.734375 179.328125 384.53125 C 151.703125 382.902344 124.058594 381.671875 96.433594 380.109375 C 71.367188 378.695312 46.308594 377.105469 21.25 375.511719 C 14.289062 375.0625 7.316406 374.878906 0.347656 374.628906 L 0.347656 376.734375 C 5.378906 376.945312 10.410156 377.179688 15.4375 377.445312 C 39.390625 378.714844 63.3125 380.558594 87.261719 381.988281 "/>
</g>
<g clip-path="url(#clip60)" clip-rule="nonzero">
<path style=" stroke:none;fill-rule:nonzero;fill:rgb(12.548828%,12.548828%,12.548828%);fill-opacity:1;" d="M 85.589844 417.894531 C 100.460938 418.808594 115.308594 420.222656 130.1875 420.878906 C 164.402344 422.394531 181.25 423.007812 190.238281 423.121094 C 205.589844 423.3125 198.023438 422.046875 214.960938 421.3125 C 245.667969 419.992188 276.394531 419.089844 307.097656 417.636719 C 323.621094 416.851562 340.109375 415.179688 356.636719 414.386719 C 384.566406 413.042969 412.523438 413.386719 440.46875 413.589844 C 455.90625 413.707031 471.34375 413.855469 486.785156 413.929688 L 486.785156 411.535156 C 483.703125 411.511719 480.625 411.496094 477.546875 411.5 C 460.410156 411.519531 443.273438 411.320312 426.140625 411.21875 C 400.890625 411.070312 375.65625 410.945312 350.433594 412.390625 C 326.945312 413.738281 303.515625 415.949219 279.96875 416.476562 C 265.8125 416.792969 251.636719 417.824219 237.46875 418.207031 C 179.558594 419.777344 204.570312 420.929688 190.222656 420.625 C 185.191406 420.519531 175.328125 420.234375 155.363281 419.726562 C 134.105469 419.191406 112.917969 417.328125 91.691406 416.195312 C 77.84375 415.453125 64.007812 414.5625 50.160156 413.824219 C 39.082031 413.234375 28 412.808594 16.925781 412.21875 C 11.402344 411.925781 5.875 411.695312 0.347656 411.542969 L 0.347656 413.847656 C 14.511719 414.140625 28.671875 414.804688 42.820312 415.582031 C 57.078125 416.359375 71.34375 417.015625 85.589844 417.894531 "/>
</g>
<g clip-path="url(#clip61)" clip-rule="nonzero">
<path style=" stroke:none;fill-rule:nonzero;fill:rgb(12.548828%,12.548828%,12.548828%);fill-opacity:1;" d="M 102.855469 29.53125 C 122.996094 30.964844 143.109375 32.742188 163.226562 34.460938 C 255.714844 42.378906 211.027344 36.910156 271.457031 35.792969 C 286.875 35.503906 302.265625 34.671875 317.667969 34.191406 C 342.359375 33.417969 367.039062 32.390625 391.664062 30.351562 C 407.820312 29.019531 424.058594 28.503906 440.25 27.523438 C 461.125 26.261719 481.988281 25.007812 502.910156 24.609375 L 502.910156 22.472656 C 490.15625 22.660156 477.410156 23.066406 464.6875 23.945312 C 435.902344 25.941406 407.039062 26.730469 378.285156 29.207031 C 357.050781 31.039062 335.695312 31.328125 314.394531 32.285156 C 293.382812 33.222656 272.351562 33.808594 251.347656 34.84375 C 213.5 36.71875 241.890625 38.617188 185.476562 34.246094 C 169.238281 32.992188 153.03125 31.40625 136.773438 30.261719 C 121.636719 29.191406 106.507812 27.980469 91.386719 26.730469 C 68.515625 24.84375 45.566406 24.367188 22.660156 23.152344 C 15.234375 22.753906 7.792969 22.546875 0.347656 22.4375 L 0.347656 24.8125 C 12.109375 25.023438 23.867188 25.347656 35.628906 25.851562 C 58.058594 26.808594 80.476562 27.929688 102.855469 29.53125 "/>
</g>
<g clip-path="url(#clip62)" clip-rule="nonzero">
<path style=" stroke:none;fill-rule:nonzero;fill:rgb(12.548828%,12.548828%,12.548828%);fill-opacity:1;" d="M 90.988281 67.628906 C 107.527344 68.589844 124.101562 69.179688 140.613281 70.460938 C 253.214844 79.1875 234.09375 76.5 344.882812 69.28125 C 367.730469 67.796875 390.585938 66.378906 413.480469 65.832031 C 439.582031 65.207031 465.695312 64.929688 491.796875 64.503906 C 495.503906 64.417969 499.207031 64.320312 502.910156 64.222656 L 502.910156 62.078125 C 479.539062 62.714844 456.160156 62.972656 432.78125 63.3125 C 412.914062 63.601562 393.066406 64.34375 373.234375 65.480469 C 357.320312 66.398438 341.402344 67.199219 325.515625 68.515625 C 302.628906 70.410156 279.699219 71.921875 256.746094 72.96875 C 235.320312 73.941406 191.140625 71.878906 165.933594 70.207031 C 151.070312 69.222656 136.226562 68.007812 121.359375 67.074219 C 102.664062 65.902344 83.933594 65.09375 65.25 63.800781 C 43.640625 62.308594 22.003906 61.597656 0.347656 61.371094 L 0.347656 63.503906 C 11.347656 63.566406 22.347656 63.695312 33.328125 64.222656 C 52.558594 65.15625 71.769531 66.511719 90.988281 67.628906 "/>
</g>
<g clip-path="url(#clip63)" clip-rule="nonzero">
<path style=" stroke:none;fill-rule:nonzero;fill:rgb(12.548828%,12.548828%,12.548828%);fill-opacity:1;" d="M 111.980469 46.859375 C 130.582031 47.53125 149.199219 47.863281 167.808594 48.410156 C 180.230469 48.773438 231.878906 49.511719 241.730469 49.402344 C 256.035156 49.246094 270.371094 49.359375 284.589844 47.984375 C 307.515625 45.769531 330.492188 44.378906 353.519531 43.5 C 384.242188 42.320312 414.984375 41.820312 445.742188 41.597656 C 463.226562 41.476562 480.703125 41.59375 498.175781 41.476562 C 499.753906 41.46875 501.332031 41.46875 502.910156 41.46875 L 502.910156 39.136719 C 493.242188 39.113281 483.578125 39.140625 473.910156 39.152344 C 460.546875 39.171875 447.1875 39.410156 433.828125 39.605469 C 413.902344 39.898438 393.980469 40.167969 374.058594 40.59375 C 365.734375 40.773438 357.433594 41.476562 349.109375 41.675781 C 329.570312 42.148438 310.085938 43.351562 290.671875 45.265625 C 276.324219 46.683594 261.925781 47.28125 247.554688 47.207031 C 201.429688 46.972656 277.824219 48.539062 158.132812 46.167969 C 144.871094 45.910156 131.609375 45.667969 118.359375 45.191406 C 102.5625 44.632812 86.777344 43.785156 70.976562 43.144531 C 58.460938 42.636719 45.929688 42.410156 33.417969 41.785156 C 22.394531 41.238281 11.371094 40.695312 0.347656 40.25 L 0.347656 42.414062 C 10.230469 42.730469 20.113281 43.113281 29.996094 43.542969 C 57.320312 44.734375 84.648438 45.871094 111.980469 46.859375 "/>
</g>
<g clip-path="url(#clip64)" clip-rule="nonzero">
<path style=" stroke:none;fill-rule:nonzero;fill:rgb(12.548828%,12.548828%,12.548828%);fill-opacity:1;" d="M 120.195312 82.84375 C 144.894531 83.984375 169.597656 85.019531 194.308594 85.972656 C 251.191406 88.160156 251.152344 89.378906 300.238281 87.433594 C 344.304688 85.691406 383.625 81.898438 452.8125 80.132812 C 469.515625 79.703125 486.210938 79.179688 502.910156 78.753906 L 502.910156 76.59375 C 499.0625 76.765625 495.210938 76.917969 491.363281 76.9375 C 476.875 77.019531 462.429688 78.007812 447.9375 78.128906 C 436.675781 78.226562 425.425781 79.300781 414.15625 79.601562 C 401.945312 79.929688 389.75 80.5 377.558594 81.15625 C 354.210938 82.410156 330.867188 83.753906 307.53125 85.082031 C 259.472656 87.820312 261.257812 86.714844 213.160156 84.542969 C 185.265625 83.273438 157.34375 82.355469 129.445312 81.148438 C 104.128906 80.054688 78.816406 78.808594 53.507812 77.554688 C 42.769531 77.023438 32.007812 77.023438 21.269531 76.542969 C 14.292969 76.226562 7.320312 76.09375 0.347656 76.035156 L 0.347656 78.101562 C 16.121094 78.242188 31.890625 78.652344 47.652344 79.285156 C 71.84375 80.261719 96.007812 81.730469 120.195312 82.84375 "/>
</g>
<g clip-path="url(#clip65)" clip-rule="nonzero">
<path style=" stroke:none;fill-rule:nonzero;fill:rgb(12.548828%,12.548828%,12.548828%);fill-opacity:1;" d="M 250.511719 322.789062 C 275.222656 321.839844 299.929688 320.804688 324.625 319.664062 C 348.8125 318.550781 372.976562 317.082031 397.167969 316.105469 C 423.433594 315.050781 449.730469 314.601562 476.023438 315.007812 C 484.984375 315.144531 493.949219 315.347656 502.910156 315.574219 L 502.910156 313.414062 C 497.148438 313.160156 491.386719 312.863281 485.621094 312.890625 C 464.929688 312.996094 444.242188 312.433594 423.550781 313.359375 C 412.816406 313.84375 402.054688 313.84375 391.3125 314.375 C 366.003906 315.628906 340.691406 316.875 315.375 317.96875 C 287.472656 319.175781 259.554688 320.089844 231.660156 321.359375 C 183.558594 323.535156 185.351562 324.640625 137.292969 321.902344 C 113.949219 320.574219 90.609375 319.230469 67.261719 317.976562 C 55.070312 317.316406 42.875 316.746094 30.664062 316.421875 C 20.550781 316.148438 10.453125 315.261719 0.347656 315.015625 L 0.347656 317.179688 C 64.414062 319.023438 102.320312 322.582031 144.585938 324.253906 C 193.667969 326.199219 193.632812 324.976562 250.511719 322.789062 "/>
</g>
<g clip-path="url(#clip66)" clip-rule="nonzero">
<path style=" stroke:none;fill-rule:nonzero;fill:rgb(12.548828%,12.548828%,12.548828%);fill-opacity:1;" d="M 60.589844 57.183594 C 74.894531 57.851562 89.207031 58.414062 103.503906 59.167969 C 118.421875 59.953125 133.316406 61.171875 148.246094 61.734375 C 221.160156 64.511719 196.601562 64.566406 323.894531 59.183594 C 340.472656 58.488281 357.015625 57.019531 373.59375 56.320312 C 401.617188 55.128906 429.664062 55.410156 457.703125 55.566406 C 472.769531 55.65625 487.839844 55.769531 502.910156 55.828125 L 502.910156 53.742188 C 500.242188 53.726562 497.570312 53.714844 494.902344 53.71875 C 477.707031 53.75 460.515625 53.589844 443.324219 53.511719 C 417.992188 53.402344 392.675781 53.3125 367.371094 54.585938 C 343.808594 55.773438 320.304688 57.71875 296.679688 58.195312 C 282.476562 58.476562 268.179688 58.371094 254.039062 59.726562 C 241.769531 60.902344 227.074219 61.640625 212.175781 61.542969 C 203.578125 61.488281 191.199219 61.089844 173.503906 60.714844 C 152.171875 60.261719 130.917969 58.65625 109.625 57.683594 C 95.726562 57.046875 81.84375 56.28125 67.949219 55.648438 C 56.839844 55.140625 45.71875 54.785156 34.609375 54.277344 C 24.019531 53.792969 13.421875 53.507812 2.824219 53.527344 C 2 53.527344 1.175781 53.53125 0.347656 53.53125 L 0.347656 55.582031 C 0.75 55.582031 1.152344 55.574219 1.558594 55.574219 C 21.253906 55.515625 40.925781 56.261719 60.589844 57.183594 "/>
</g>
<g clip-path="url(#clip67)" clip-rule="nonzero">
<path style=" stroke:none;fill-rule:nonzero;fill:rgb(12.548828%,12.548828%,12.548828%);fill-opacity:1;" d="M 118.699219 237.582031 C 139.863281 238.183594 161.015625 239.03125 182.167969 239.804688 C 194.96875 240.269531 207.765625 241.078125 220.574219 241.242188 C 271.695312 241.871094 300.035156 237.675781 348.617188 237.21875 C 371.546875 237 394.460938 235.855469 417.691406 235.109375 C 420.585938 235.105469 423.792969 235.210938 426.992188 235.074219 C 442.539062 234.433594 465.046875 233.988281 486.785156 233.9375 L 486.785156 231.996094 C 473.9375 231.863281 462.375 231.839844 454.648438 232.035156 C 425.832031 232.773438 397.015625 233.757812 368.195312 234.578125 C 349.5 235.113281 330.785156 235.257812 312.101562 236.078125 C 238.863281 239.292969 248.433594 241.132812 197.011719 238.625 C 175.652344 237.582031 154.253906 237.191406 132.882812 236.390625 C 110.0625 235.539062 87.230469 234.769531 64.394531 234.617188 C 43.207031 234.476562 22.019531 234.089844 0.839844 233.507812 C 0.683594 233.503906 0.507812 233.496094 0.347656 233.492188 L 0.347656 235.175781 C 17.289062 235.480469 34.226562 235.714844 51.167969 236.050781 C 73.679688 236.492188 96.191406 236.9375 118.699219 237.582031 "/>
</g>
<g clip-path="url(#clip68)" clip-rule="nonzero">
<path style=" stroke:none;fill-rule:nonzero;fill:rgb(12.548828%,12.548828%,12.548828%);fill-opacity:1;" d="M 53.386719 2.589844 C 67.574219 2.570312 81.75 2.933594 95.925781 3.246094 C 105.574219 3.460938 115.214844 3.96875 124.855469 4.441406 C 132.339844 4.808594 139.835938 5.132812 147.28125 5.820312 C 159.671875 6.964844 172.09375 7.675781 184.523438 7.816406 C 187.863281 7.859375 196.488281 7.910156 207.238281 8.285156 C 213.582031 8.503906 220.582031 9.148438 227.910156 9.136719 C 239.683594 9.125 250.300781 7.898438 254.234375 7.714844 C 270.363281 6.957031 286.503906 6.542969 302.640625 5.871094 C 323.917969 4.984375 345.179688 3.878906 366.476562 3.484375 C 385.496094 3.128906 404.515625 2.925781 423.535156 2.753906 L 501.507812 1.785156 C 501.976562 1.785156 502.445312 1.785156 502.910156 1.789062 L 502.910156 0.121094 C 478.617188 0.292969 447.804688 0.59375 440.691406 0.691406 C 415.285156 1.027344 389.863281 1.304688 364.460938 1.878906 C 333.5 2.582031 302.554688 3.902344 271.628906 5.476562 C 190.644531 9.585938 245 6.972656 193.535156 6.125 C 182.332031 5.9375 171.105469 5.800781 159.945312 4.855469 C 141.503906 3.300781 123.011719 2.507812 104.515625 1.875 C 86.742188 1.261719 68.953125 0.882812 51.148438 0.804688 C 34.214844 0.71875 17.28125 0.507812 0.347656 0.3125 L 0.347656 1.914062 C 1.476562 1.917969 2.609375 1.921875 3.738281 1.929688 C 20.289062 2.039062 36.835938 2.609375 53.386719 2.589844 "/>
</g>
<g clip-path="url(#clip69)" clip-rule="nonzero">
<path style=" stroke:none;fill-rule:nonzero;fill:rgb(12.548828%,12.548828%,12.548828%);fill-opacity:1;" d="M 52.171875 473.730469 C 79.386719 474.503906 106.664062 473.78125 133.816406 475.878906 C 153.039062 477.460938 156.183594 478.695312 193.136719 479.425781 C 204.328125 479.648438 218 483.136719 269.867188 480.089844 C 284.269531 479.246094 298.691406 478.664062 313.066406 477.386719 C 321.367188 476.648438 329.753906 476.683594 338.085938 476.128906 C 349.492188 475.375 360.929688 475.121094 372.347656 474.4375 C 382.824219 473.8125 393.339844 473.449219 403.84375 472.984375 C 414.65625 472.515625 425.402344 471.261719 436.242188 471.066406 C 455.339844 470.722656 479.804688 471.003906 502.910156 471.488281 L 502.910156 469.203125 C 498.507812 469.09375 494.394531 469.027344 490.796875 469.027344 C 472.324219 468.964844 453.847656 468.410156 435.386719 469.304688 C 421.890625 469.953125 408.421875 470.941406 394.933594 471.628906 C 378.140625 472.492188 361.339844 473.203125 344.542969 473.980469 C 326.617188 474.804688 308.722656 476.082031 290.816406 477.21875 C 260.351562 479.160156 246.601562 481.085938 151.101562 475.042969 C 131.023438 473.773438 110.953125 472.484375 90.824219 472.320312 C 61.621094 472.082031 32.429688 471.304688 3.222656 471.453125 C 2.433594 471.457031 1.464844 471.449219 0.347656 471.425781 L 0.347656 473.128906 C 9.484375 473.441406 15.046875 473.664062 15.046875 473.664062 C 27.421875 473.28125 39.800781 473.378906 52.171875 473.730469 "/>
</g>
<g clip-path="url(#clip70)" clip-rule="nonzero">
<path style=" stroke:none;fill-rule:nonzero;fill:rgb(12.548828%,12.548828%,12.548828%);fill-opacity:1;" d="M 11.003906 483.785156 C 34.234375 484.53125 57.144531 485.675781 80.074219 485.894531 C 128.660156 486.351562 157 490.550781 208.121094 489.917969 C 220.929688 489.753906 233.722656 488.949219 246.523438 488.480469 C 267.679688 487.707031 288.832031 486.859375 309.992188 486.257812 C 332.5 485.617188 355.011719 485.171875 377.523438 484.726562 C 406.652344 484.148438 435.785156 483.875 464.902344 483.027344 C 476 482.703125 489.304688 482.582031 502.910156 482.613281 L 502.910156 480.675781 C 475.5 480.964844 442.234375 481.789062 427.851562 482.183594 C 406.671875 482.769531 385.488281 483.152344 364.296875 483.292969 C 341.460938 483.449219 318.632812 484.214844 295.8125 485.070312 C 274.4375 485.867188 253.042969 486.261719 231.683594 487.304688 C 180.257812 489.808594 189.832031 487.96875 116.589844 484.753906 C 97.910156 483.933594 79.191406 483.789062 60.496094 483.257812 C 40.445312 482.683594 20.398438 482.039062 0.347656 481.449219 L 0.347656 483.695312 C 0.804688 483.714844 1.253906 483.734375 1.703125 483.75 C 4.898438 483.886719 8.105469 483.78125 11.003906 483.785156 "/>
</g>
<g clip-path="url(#clip71)" clip-rule="nonzero">
<path style=" stroke:none;fill-rule:nonzero;fill:rgb(12.548828%,12.548828%,12.548828%);fill-opacity:1;" d="M 78.34375 498.636719 C 99.640625 499.035156 120.90625 500.140625 142.183594 501.027344 C 158.316406 501.703125 174.460938 502.113281 190.585938 502.871094 C 194.523438 503.058594 205.140625 504.285156 216.910156 504.292969 C 224.238281 504.304688 231.238281 503.664062 237.585938 503.441406 C 248.332031 503.066406 256.957031 503.015625 260.296875 502.972656 C 272.726562 502.835938 285.152344 502.121094 297.539062 500.976562 C 304.984375 500.292969 312.480469 499.96875 319.964844 499.597656 C 329.605469 499.121094 339.246094 498.617188 348.898438 498.40625 C 363.074219 498.089844 377.246094 497.730469 391.433594 497.746094 C 407.984375 497.765625 424.53125 497.199219 441.082031 497.085938 C 461.691406 496.949219 482.304688 497.058594 502.910156 496.949219 L 502.910156 495.277344 C 489.679688 495.183594 478.378906 495.128906 473.90625 495.164062 C 447.160156 495.382812 420.414062 495.828125 393.667969 495.960938 C 375.867188 496.042969 358.078125 496.421875 340.308594 497.03125 C 321.8125 497.664062 303.320312 498.457031 284.875 500.015625 C 273.714844 500.957031 262.492188 501.097656 251.285156 501.28125 C 199.820312 502.132812 254.175781 504.746094 173.191406 500.632812 C 142.261719 499.058594 111.324219 497.738281 80.359375 497.035156 C 54.953125 496.464844 29.539062 496.1875 4.125 495.851562 C 3.226562 495.835938 1.945312 495.824219 0.347656 495.804688 L 0.347656 497.652344 L 21.285156 497.914062 C 40.304688 498.085938 59.328125 498.285156 78.34375 498.636719 "/>
</g>
<g clip-path="url(#clip72)" clip-rule="nonzero">
<path style=" stroke:none;fill-rule:nonzero;fill:rgb(12.548828%,12.548828%,12.548828%);fill-opacity:1;" d="M 54.09375 349.554688 C 68.308594 350.058594 82.53125 350.28125 96.75 350.742188 C 111.386719 351.214844 126.027344 351.710938 140.648438 352.4375 C 150.421875 352.925781 160.171875 353.957031 169.941406 354.527344 C 183.21875 355.304688 196.554688 355.34375 209.769531 356.65625 C 225.601562 358.234375 260.894531 360.425781 277.125 359.914062 C 291.660156 359.457031 306.183594 358.585938 320.71875 357.898438 C 330.398438 357.285156 340.085938 356.613281 349.789062 356.601562 C 371.347656 356.578125 392.886719 356.101562 414.429688 355.265625 C 430.53125 354.644531 446.546875 352.933594 462.621094 352.015625 C 463.097656 351.988281 526.871094 349.132812 544.84375 348.359375 L 544.84375 346.347656 C 542.507812 346.40625 539.984375 346.472656 537.222656 346.542969 C 525.65625 346.835938 510.144531 348.296875 488.691406 348.621094 C 464.941406 348.972656 441.308594 351.800781 417.570312 352.585938 C 403.128906 353.0625 388.710938 354.113281 374.246094 354.203125 C 361.351562 354.285156 348.4375 353.601562 335.558594 354.679688 C 284.535156 358.972656 247.59375 358.398438 208.691406 354.820312 C 195.851562 353.644531 182.921875 353.492188 170.058594 352.558594 C 151.015625 351.171875 131.964844 350.003906 112.898438 349.289062 C 92.886719 348.535156 72.863281 348.320312 52.859375 347.566406 C 13.972656 346.101562 18.695312 345.539062 0.347656 345.9375 L 0.347656 348.601562 C 4.449219 348.730469 8.550781 348.832031 12.652344 348.890625 C 26.464844 349.101562 40.28125 349.058594 54.09375 349.554688 "/>
</g>
<g clip-path="url(#clip73)" clip-rule="nonzero">
<path style=" stroke:none;fill-rule:nonzero;fill:rgb(12.548828%,12.548828%,12.548828%);fill-opacity:1;" d="M 91.484375 196.800781 C 118.445312 197.59375 145.46875 196.675781 172.375 198.980469 C 192.253906 200.6875 212.148438 201.476562 232.078125 201.855469 C 262.800781 202.433594 271.609375 205.265625 289.160156 205.921875 C 302.183594 206.410156 320.019531 205.695312 355.183594 201.96875 C 363.402344 201.105469 371.714844 201.113281 379.960938 200.449219 C 391.261719 199.550781 402.59375 199.222656 413.898438 198.40625 C 424.28125 197.660156 434.695312 197.203125 445.097656 196.644531 C 455.808594 196.074219 466.453125 194.605469 477.191406 194.347656 C 485.011719 194.15625 493.742188 194.089844 502.910156 194.105469 L 502.910156 191.679688 C 494.046875 191.679688 485.1875 191.8125 476.332031 192.335938 C 462.96875 193.121094 449.628906 194.292969 436.265625 195.125 C 419.632812 196.167969 402.992188 197.035156 386.355469 197.972656 C 368.59375 198.976562 350.875 200.496094 333.136719 201.855469 C 295.234375 204.75 286.324219 203.980469 271.878906 202.117188 C 244.492188 199 216.929688 199.878906 189.496094 197.96875 C 169.601562 196.585938 149.710938 195.183594 129.769531 195.0625 C 100.835938 194.886719 71.914062 194.09375 42.976562 194.363281 C 36.527344 194.421875 18.382812 193.394531 0.347656 192.632812 L 0.347656 195.035156 C 30.574219 195.828125 54.703125 196.847656 54.703125 196.847656 C 66.960938 196.367188 79.226562 196.441406 91.484375 196.800781 "/>
</g>
<g clip-path="url(#clip74)" clip-rule="nonzero">
<path style=" stroke:none;fill-rule:nonzero;fill:rgb(12.548828%,12.548828%,12.548828%);fill-opacity:1;" d="M 120.136719 216.421875 C 175.621094 218.652344 173.796875 219.355469 178.847656 219.382812 C 181.742188 219.402344 186.894531 219.640625 206.386719 218.6875 C 227.273438 217.667969 248.164062 216.5625 269.058594 215.730469 C 291.28125 214.847656 313.519531 214.195312 335.75 213.539062 C 364.515625 212.6875 393.292969 212.179688 422.042969 211.019531 C 433.386719 210.5625 447.054688 210.332031 460.980469 210.289062 L 460.980469 208.058594 C 433.648438 208.558594 399.894531 209.75 385.441406 210.304688 C 364.53125 211.113281 343.605469 211.691406 322.675781 211.996094 C 300.117188 212.324219 277.574219 213.347656 255.042969 214.476562 C 233.9375 215.523438 212.800781 215.523438 191.714844 216.851562 C 186.664062 217.171875 76.179688 211.785156 71.132812 211.566406 C 52.675781 210.757812 34.191406 210.71875 15.71875 210.234375 C 10.59375 210.101562 5.46875 209.957031 0.347656 209.8125 L 0.347656 212.335938 C 11.949219 212.730469 23.511719 213.058594 35.078125 213.105469 C 63.476562 213.226562 91.78125 215.289062 120.136719 216.421875 "/>
</g>
<g clip-path="url(#clip75)" clip-rule="nonzero">
<path style=" stroke:none;fill-rule:nonzero;fill:rgb(12.548828%,12.548828%,12.548828%);fill-opacity:1;" d="M 71.792969 223.828125 C 88.007812 224.558594 104.238281 224.988281 120.449219 225.816406 C 125.839844 226.09375 139.566406 228.277344 159.375 228.671875 C 177.066406 229.023438 199.636719 227.785156 225.007812 225.003906 C 232.5 224.183594 240.03125 223.785156 247.550781 223.335938 C 257.238281 222.757812 266.929688 222.144531 276.632812 221.867188 C 290.882812 221.457031 305.128906 220.996094 319.390625 220.972656 C 336.023438 220.945312 352.660156 220.238281 369.296875 220.058594 C 390.484375 219.832031 411.671875 219.90625 432.859375 219.699219 L 460.980469 220.019531 L 460.980469 217.964844 C 437.738281 217.792969 409.984375 217.636719 402.289062 217.726562 C 375.398438 218.058594 348.519531 218.664062 321.628906 218.894531 C 303.738281 219.046875 285.855469 219.539062 267.992188 220.296875 C 249.402344 221.089844 230.816406 222.066406 212.277344 223.929688 C 207.375 224.417969 164.234375 226.652344 159.324219 226.3125 C 140.546875 225.023438 121.746094 224.320312 102.960938 223.277344 C 71.867188 221.546875 40.753906 220.109375 9.625 219.394531 C 6.535156 219.320312 3.441406 219.269531 0.347656 219.207031 L 0.347656 221.140625 C 2.765625 221.179688 5.1875 221.214844 7.605469 221.257812 C 29.011719 221.652344 50.398438 222.867188 71.792969 223.828125 "/>
</g>
<g clip-path="url(#clip76)" clip-rule="nonzero">
<path style=" stroke:none;fill-rule:nonzero;fill:rgb(12.548828%,12.548828%,12.548828%);fill-opacity:1;" d="M 78.859375 185.09375 C 100.203125 185.902344 121.539062 186.351562 142.894531 186.351562 C 152.503906 186.355469 162.097656 187.011719 171.691406 187.617188 C 186.085938 188.28125 200.476562 189.128906 214.871094 189.570312 C 219.859375 189.722656 225.527344 189.9375 232.777344 189.9375 C 244.941406 189.941406 261.566406 189.335938 286.894531 186.792969 C 299.988281 185.480469 313.195312 185.433594 326.347656 184.648438 C 336.019531 184.074219 345.679688 183.042969 355.355469 182.550781 C 369.84375 181.816406 384.34375 181.316406 398.839844 180.828125 C 412.925781 180.359375 427.007812 180.128906 441.09375 179.613281 C 454.777344 179.113281 468.460938 179.144531 482.144531 178.921875 C 489.066406 178.8125 495.992188 178.585938 502.910156 178.308594 L 502.910156 176.183594 C 474.136719 175.480469 485.941406 175.960938 442.3125 177.644531 C 422.5 178.410156 402.664062 178.644531 382.847656 179.410156 C 363.957031 180.132812 345.085938 181.308594 326.230469 182.695312 C 313.484375 183.632812 300.679688 183.792969 287.960938 184.976562 C 274.601562 186.214844 259.640625 187.382812 240.746094 187.714844 C 219.132812 188.09375 192.371094 187.382812 156.984375 184.441406 C 144.230469 183.382812 131.4375 184.074219 118.664062 184.003906 C 104.335938 183.921875 90.054688 182.898438 75.753906 182.4375 C 52.234375 181.683594 28.824219 178.90625 5.296875 178.574219 C 3.605469 178.550781 1.964844 178.515625 0.347656 178.480469 L 0.347656 180.558594 C 16.953125 181.285156 30.902344 181.898438 31.125 181.910156 C 47.046875 182.8125 62.910156 184.492188 78.859375 185.09375 "/>
</g>
<g clip-path="url(#clip77)" clip-rule="nonzero">
<path style=" stroke:none;fill-rule:nonzero;fill:rgb(12.548828%,12.548828%,12.548828%);fill-opacity:1;" d="M 15.53125 91.976562 C 32.800781 92.480469 45.4375 92.683594 58.046875 93.25 C 76.769531 94.085938 95.488281 94.867188 114.183594 96.210938 C 132.761719 97.550781 151.382812 98.46875 170.011719 99.269531 C 182.726562 99.8125 195.40625 101.035156 208.113281 101.695312 C 229.425781 102.800781 241.210938 104.832031 243.675781 104.886719 C 245.503906 104.929688 251.007812 104.449219 278.457031 103.066406 C 295.457031 102.441406 328.339844 99.464844 327.992188 99.492188 C 346.410156 98.699219 364.785156 97.421875 383.1875 96.425781 C 406.84375 95.144531 430.441406 92.976562 454.101562 91.882812 C 482.261719 90.582031 485.070312 90.609375 502.910156 91.027344 L 502.910156 89.351562 C 478.152344 89.363281 454.941406 89.90625 435.003906 91.355469 C 408.0625 93.320312 381.085938 94.871094 354.117188 96.476562 C 269.929688 101.484375 247.417969 102.496094 243.734375 102.359375 C 237.09375 102.117188 231.0625 101.191406 214.390625 100.273438 C 189.988281 98.929688 165.601562 97.417969 141.1875 96.179688 C 111.921875 94.699219 82.714844 92.296875 53.40625 91.460938 C 35.96875 90.964844 18.105469 90.460938 0.347656 90.074219 L 0.347656 91.664062 C 5.867188 91.683594 11.007812 91.757812 15.53125 91.976562 "/>
</g>
<g clip-path="url(#clip78)" clip-rule="nonzero">
<path style=" stroke:none;fill-rule:nonzero;fill:rgb(12.548828%,12.548828%,12.548828%);fill-opacity:1;" d="M 58.046875 400.980469 C 76.769531 401.8125 95.488281 402.59375 114.183594 403.9375 C 132.761719 405.277344 151.382812 406.195312 170.011719 406.996094 C 182.726562 407.539062 195.40625 408.765625 208.113281 409.421875 C 229.425781 410.527344 241.210938 412.5625 243.675781 412.617188 C 245.503906 412.65625 251.007812 412.179688 278.457031 410.792969 C 295.457031 410.167969 328.339844 407.195312 327.992188 407.222656 C 346.410156 406.425781 364.785156 405.148438 383.1875 404.152344 C 406.84375 402.875 430.441406 400.707031 454.101562 399.609375 C 482.261719 398.308594 485.070312 398.339844 502.910156 398.757812 L 502.910156 397.074219 C 478.152344 397.089844 454.941406 397.632812 435.003906 399.085938 C 408.0625 401.046875 381.085938 402.597656 354.117188 404.203125 C 269.929688 409.210938 247.417969 410.222656 243.734375 410.085938 C 237.09375 409.84375 231.0625 408.917969 214.390625 408 C 189.988281 406.65625 165.601562 405.148438 141.1875 403.90625 C 111.921875 402.425781 82.714844 400.023438 53.40625 399.1875 C 35.96875 398.691406 18.105469 398.191406 0.347656 397.800781 L 0.347656 399.390625 C 5.867188 399.410156 11.007812 399.484375 15.53125 399.707031 C 32.800781 400.207031 45.4375 400.414062 58.046875 400.980469 "/>
</g>
<g clip-path="url(#clip79)" clip-rule="nonzero">
<path style=" stroke:none;fill-rule:nonzero;fill:rgb(12.548828%,12.548828%,12.548828%);fill-opacity:1;" d="M 88.78125 171.570312 C 98.570312 172.136719 108.394531 172.125 118.183594 172.75 C 136.746094 173.929688 155.308594 175.222656 173.847656 176.761719 C 198.046875 178.761719 212.996094 179.746094 224.691406 180.027344 C 244.191406 180.496094 254.664062 179.007812 283.898438 177 C 302.050781 175.757812 320.179688 174.101562 338.335938 172.882812 C 356.804688 171.640625 375.308594 170.933594 393.769531 169.601562 C 417.910156 167.859375 442.09375 167.035156 466.261719 165.832031 C 481.363281 165.085938 489.890625 164.738281 502.910156 164.898438 L 502.910156 162.878906 C 479.703125 163.121094 460.933594 164.316406 455.992188 164.574219 C 442.253906 165.289062 428.503906 165.738281 414.765625 166.542969 C 394.527344 167.730469 374.320312 169.4375 354.070312 170.347656 C 327.402344 171.554688 300.863281 174.5625 274.191406 175.691406 C 249.324219 176.75 243.644531 178.429688 225.144531 178.058594 C 210.601562 177.765625 188.128906 176.199219 142.160156 172.070312 C 127.625 170.683594 113.03125 170.488281 98.464844 169.707031 C 77.800781 168.601562 57.148438 167.238281 36.496094 165.960938 C 24.457031 165.214844 12.394531 165.210938 0.347656 164.699219 L 0.347656 166.789062 C 8.035156 167.082031 16.601562 167.410156 26.234375 167.78125 C 47.101562 168.582031 67.925781 170.371094 88.78125 171.570312 "/>
</g>
<g clip-path="url(#clip80)" clip-rule="nonzero">
<path style=" stroke:none;fill-rule:nonzero;fill:rgb(12.548828%,12.548828%,12.548828%);fill-opacity:1;" d="M 40.183594 140.640625 C 59.0625 141.722656 77.949219 142.699219 96.808594 144.082031 C 113.410156 145.296875 130.027344 146.195312 146.632812 147.261719 C 168.363281 148.65625 190.085938 150.140625 211.789062 151.988281 C 231.140625 153.636719 245.140625 154.269531 256.089844 154.273438 C 279.527344 154.277344 288.972656 151.378906 306.945312 149.269531 C 319.808594 147.757812 332.679688 146.503906 345.558594 145.246094 C 360.273438 143.8125 374.980469 142.089844 389.726562 141.015625 C 406.214844 139.816406 422.703125 138.460938 439.238281 138.023438 C 454.226562 137.628906 469.222656 137.421875 484.214844 136.960938 C 488.40625 136.835938 495.898438 136.902344 504.851562 137.085938 L 504.851562 134.945312 C 491.703125 134.839844 484.949219 135.289062 467.34375 135.613281 C 452.75 135.882812 438.167969 136.117188 423.589844 137 C 395.59375 138.691406 367.628906 140.8125 339.757812 144.09375 C 322.097656 146.175781 304.355469 147.484375 286.707031 149.644531 C 257.222656 153.261719 251.964844 153.367188 220.777344 150.886719 C 199.160156 149.160156 177.550781 147.433594 155.910156 146.046875 C 129.75 144.375 103.585938 142.882812 77.441406 141.015625 C 57.339844 139.582031 37.234375 138.417969 17.109375 137.527344 C 11.054688 137.261719 5.496094 137.015625 0.347656 136.800781 L 0.347656 138.804688 C 5.367188 138.992188 9.390625 139.152344 11.863281 139.253906 C 21.300781 139.65625 30.746094 140.097656 40.183594 140.640625 "/>
</g>
<g clip-path="url(#clip81)" clip-rule="nonzero">
<path style=" stroke:none;fill-rule:nonzero;fill:rgb(12.548828%,12.548828%,12.548828%);fill-opacity:1;" d="M 36.148438 104.035156 C 53.042969 105.355469 70.003906 105.625 86.886719 107.320312 C 99.066406 108.539062 111.394531 108.507812 123.636719 109.296875 C 140.25 110.378906 156.867188 111.414062 173.460938 112.78125 C 183.503906 113.605469 193.574219 114.515625 203.660156 114.769531 C 268.863281 113.59375 266.367188 114.242188 302.621094 110.597656 C 321.75 108.675781 340.921875 107.007812 360.164062 106.144531 C 381.0625 105.207031 401.964844 104.28125 422.851562 103.046875 C 441.863281 101.925781 460.910156 101.59375 479.949219 101.03125 C 489.03125 100.765625 496.511719 100.609375 502.910156 100.546875 L 502.910156 98.550781 C 491.511719 98.828125 474.574219 99.371094 448.050781 100.273438 C 421.3125 101.179688 394.636719 103.253906 367.882812 104.066406 C 351.34375 104.570312 334.859375 106.121094 318.378906 107.578125 C 225.679688 115.242188 200.121094 111.898438 156.085938 109.804688 C 134.789062 108.394531 113.464844 107.355469 92.179688 105.847656 C 74.214844 104.578125 56.222656 103.753906 38.261719 102.367188 C 26.859375 101.488281 15.382812 101.289062 3.929688 100.871094 C 2.6875 100.824219 1.5 100.777344 0.347656 100.734375 L 0.347656 102.765625 C 3.113281 102.902344 6.089844 103.039062 9.328125 103.167969 C 18.261719 103.535156 27.230469 103.347656 36.148438 104.035156 "/>
</g>
<g clip-path="url(#clip82)" clip-rule="nonzero">
<path style=" stroke:none;fill-rule:nonzero;fill:rgb(12.548828%,12.548828%,12.548828%);fill-opacity:1;" d="M 79.433594 155.441406 C 95.152344 156.308594 110.824219 157.890625 126.5625 158.589844 C 135.902344 159 145.195312 160.488281 154.527344 161.320312 C 186.101562 164.144531 202.90625 165.8125 220.53125 165.730469 C 230.503906 165.6875 240.738281 165.085938 254.058594 163.816406 C 290.570312 160.335938 327.085938 156.921875 363.648438 154.089844 C 381.511719 152.710938 399.410156 151.75 417.320312 151.199219 C 437.605469 150.574219 457.878906 149.878906 478.160156 149.304688 C 481.1875 149.21875 494.835938 149.179688 504.851562 149.175781 L 504.851562 147.023438 C 484.503906 147.550781 435.1875 148.855469 434.878906 148.867188 C 403.761719 149.640625 372.699219 151.359375 341.691406 154.074219 C 312.445312 156.644531 283.214844 159.476562 253.976562 162.105469 C 240.957031 163.277344 233.289062 164.269531 220.320312 164.152344 C 204.890625 164.003906 181.964844 162.289062 133.601562 157.414062 C 115.972656 155.640625 98.246094 154.859375 80.558594 153.78125 C 58.339844 152.421875 36.101562 151.425781 13.898438 149.875 C 9.382812 149.5625 4.863281 149.257812 0.347656 148.964844 L 0.347656 150.777344 C 16.125 151.695312 31.878906 152.957031 47.671875 153.613281 C 58.253906 154.050781 68.847656 154.859375 79.433594 155.441406 "/>
</g>
<g clip-path="url(#clip83)" clip-rule="nonzero">
<path style=" stroke:none;fill-rule:nonzero;fill:rgb(12.548828%,12.548828%,12.548828%);fill-opacity:1;" d="M 95.125 132.589844 C 110.195312 133.660156 125.277344 134.609375 140.359375 135.5 C 150.445312 136.097656 160.5625 136.230469 170.628906 137.050781 C 189.257812 138.570312 207.933594 138.941406 226.578125 140.027344 C 228.617188 140.148438 231.578125 140.492188 235.148438 140.335938 C 250.460938 139.671875 276.511719 136.546875 284.003906 135.472656 C 288.878906 134.773438 293.773438 134.234375 298.679688 133.78125 C 305.972656 133.109375 313.285156 132.621094 320.578125 132.058594 C 340.726562 130.507812 360.839844 128.53125 381.058594 127.882812 C 397.679688 127.351562 414.265625 125.777344 430.875 124.808594 C 447.171875 123.855469 463.480469 123.042969 479.78125 122.246094 C 494.210938 121.539062 497.367188 121.3125 502.910156 121.433594 L 502.910156 119.679688 C 481.90625 120.03125 460.277344 121.3125 434.316406 123.007812 C 412.925781 124.410156 391.496094 125.160156 370.105469 126.539062 C 350.148438 127.824219 330.195312 129.382812 310.269531 131.132812 C 306.128906 131.492188 302.277344 131.839844 298.683594 132.175781 C 250.460938 136.660156 249.09375 138.609375 235.058594 138.40625 C 225.84375 138.273438 211.164062 137.210938 174.160156 135.324219 C 151.113281 134.152344 128.058594 132.914062 105.050781 131.121094 C 82.15625 129.339844 59.234375 127.847656 36.402344 125.039062 C 23.4375 123.449219 11.566406 122.253906 0.347656 121.394531 L 0.347656 124.035156 C 16.390625 125.242188 32.402344 126.945312 48.402344 128.855469 C 63.910156 130.707031 79.539062 131.476562 95.125 132.589844 "/>
</g>
<g clip-path="url(#clip84)" clip-rule="nonzero">
<path style=" stroke:none;fill-rule:nonzero;fill:rgb(12.548828%,12.548828%,12.548828%);fill-opacity:1;" d="M 55.582031 116.953125 C 62.808594 117.40625 70.078125 117.34375 77.308594 117.707031 C 84.167969 118.054688 91 118.707031 97.851562 119.125 C 106.535156 119.660156 115.214844 120.253906 123.914062 120.609375 C 139.472656 121.242188 155 122.402344 170.542969 123.304688 C 185.175781 124.152344 199.804688 125.117188 214.449219 125.792969 C 236.082031 126.792969 243.667969 125.84375 257.9375 125.210938 C 281.585938 124.164062 304.988281 121.109375 328.363281 120.164062 C 356.027344 119.046875 381.304688 116.941406 407.886719 115.175781 C 431.320312 113.621094 454.765625 112.371094 478.238281 111.527344 C 482.546875 111.371094 491.964844 111.296875 502.910156 111.386719 L 502.910156 109.414062 C 492.003906 109.5 476.675781 110.054688 446.808594 111.390625 C 423.847656 112.421875 400.945312 114.203125 377.980469 115.167969 C 354.824219 116.140625 331.621094 116.640625 308.558594 118.894531 C 278.125 121.867188 254.183594 123.679688 231.089844 123.757812 C 195.257812 123.875 162.667969 119.613281 119.210938 117.640625 C 105.886719 117.035156 92.472656 116.84375 79.148438 116.242188 C 52.855469 115.054688 26.632812 112.871094 0.347656 111.507812 L 0.347656 113.292969 C 5.574219 113.523438 10.800781 113.78125 16.023438 114.125 C 29.214844 114.988281 42.386719 116.136719 55.582031 116.953125 "/>
</g>
<g clip-path="url(#clip85)" clip-rule="nonzero">
<path style=" stroke:none;fill-rule:nonzero;fill:rgb(12.548828%,12.548828%,12.548828%);fill-opacity:1;" d="M 54.113281 511.949219 C 59.742188 512.296875 65.367188 512.675781 70.992188 513.078125 C 91.238281 514.535156 111.453125 516.335938 131.675781 518.074219 C 140.96875 518.875 148.890625 519.539062 155.671875 520.082031 C 218.066406 525.105469 184.132812 520.101562 237.566406 519.144531 C 253.066406 518.863281 268.53125 518.039062 284.015625 517.558594 C 290.222656 517.367188 296.425781 517.160156 302.628906 516.925781 C 321.238281 516.226562 339.835938 515.269531 358.398438 513.746094 C 370.578125 512.746094 382.800781 512.210938 395.019531 511.59375 C 399.089844 511.390625 403.164062 511.175781 407.234375 510.929688 C 432.421875 509.421875 457.59375 507.90625 482.867188 507.902344 C 489.550781 507.902344 496.230469 507.917969 502.910156 507.960938 L 502.910156 505.75 C 479.195312 505.726562 455.460938 505.726562 431.804688 507.351562 C 410.101562 508.839844 388.355469 509.648438 366.648438 511.003906 C 359.410156 511.453125 352.175781 511.964844 344.949219 512.585938 C 339.613281 513.042969 334.269531 513.402344 328.921875 513.699219 C 312.875 514.59375 296.785156 514.929688 280.726562 515.636719 C 259.605469 516.574219 238.46875 517.144531 217.351562 518.175781 C 182.722656 519.871094 203.933594 521.753906 165.234375 518.746094 C 161.957031 518.492188 158.246094 518.199219 154.035156 517.871094 C 151.996094 517.714844 149.953125 517.546875 147.917969 517.382812 C 133.640625 516.207031 119.382812 514.851562 105.085938 513.835938 C 89.871094 512.753906 74.664062 511.527344 59.46875 510.261719 C 39.792969 508.625 20.058594 508.027344 0.347656 507.113281 L 0.347656 509.21875 C 1.371094 509.257812 2.398438 509.296875 3.421875 509.339844 C 20.332031 510.074219 37.230469 510.898438 54.113281 511.949219 "/>
</g>
<g clip-path="url(#clip86)" clip-rule="nonzero">
<path style=" stroke:none;fill-rule:nonzero;fill:rgb(12.548828%,12.548828%,12.548828%);fill-opacity:1;" d="M 387.59375 547.375 C 413.28125 546.773438 438.980469 546.507812 464.675781 546.097656 C 477.417969 545.808594 490.160156 545.390625 502.910156 545.183594 L 502.910156 543.101562 C 493.945312 543.242188 484.984375 543.464844 476.023438 543.703125 C 452.882812 544.328125 429.734375 544.574219 406.589844 544.902344 C 387.035156 545.179688 367.5 545.902344 347.980469 547.015625 C 332.316406 547.910156 316.648438 548.695312 301.011719 549.984375 C 278.484375 551.839844 255.914062 553.320312 233.324219 554.339844 C 220.257812 554.933594 203.585938 555.15625 187.59375 554.679688 C 163.304688 553.964844 140.644531 552.171875 135.101562 551.800781 C 120.476562 550.824219 105.863281 549.625 91.230469 548.699219 C 72.832031 547.539062 54.398438 546.738281 36.007812 545.460938 C 24.128906 544.632812 12.242188 544.050781 0.347656 543.65625 L 0.347656 545.683594 C 1.761719 545.738281 3.175781 545.792969 4.589844 545.863281 C 23.519531 546.789062 42.421875 548.128906 61.339844 549.234375 C 77.617188 550.1875 93.929688 550.773438 110.179688 552.039062 C 136.25 554.070312 156.292969 555.421875 172.964844 556.21875 L 239.777344 556.21875 C 260.292969 555.121094 283.382812 553.121094 320.074219 550.746094 C 342.5625 549.292969 365.054688 547.90625 387.59375 547.375 "/>
</g>
<g clip-path="url(#clip87)" clip-rule="nonzero">
<path style=" stroke:none;fill-rule:nonzero;fill:rgb(12.548828%,12.548828%,12.548828%);fill-opacity:1;" d="M 135.667969 529.175781 C 154.292969 529.742188 172.925781 529.96875 191.550781 530.414062 C 233.328125 531.394531 236.46875 534.664062 265.046875 534.183594 C 279.363281 533.945312 293.714844 533.972656 307.933594 532.519531 C 330.867188 530.175781 353.855469 528.648438 376.894531 527.632812 C 407.640625 526.28125 438.40625 525.605469 469.1875 525.207031 C 480.429688 525.0625 491.671875 525.019531 502.910156 524.949219 L 502.910156 522.558594 C 501.058594 522.574219 499.210938 522.585938 497.363281 522.601562 C 483.992188 522.691406 470.621094 523.003906 457.246094 523.28125 C 437.308594 523.683594 417.367188 524.074219 397.433594 524.613281 C 389.101562 524.839844 380.792969 525.589844 372.46875 525.835938 C 352.914062 526.421875 333.421875 527.734375 314.003906 529.761719 C 299.652344 531.265625 285.246094 531.945312 270.863281 531.953125 C 225.640625 531.976562 233.734375 528.953125 181.851562 528.226562 C 168.582031 528.039062 155.304688 527.871094 142.042969 527.476562 C 126.226562 527.003906 110.417969 526.246094 94.601562 525.691406 C 82.066406 525.257812 69.523438 525.097656 56.996094 524.550781 C 38.125 523.714844 19.242188 522.898438 0.347656 522.582031 L 0.347656 524.867188 C 18.097656 525.128906 35.839844 525.65625 53.585938 526.328125 C 80.945312 527.359375 108.304688 528.347656 135.667969 529.175781 "/>
</g>
<g clip-path="url(#clip88)" clip-rule="nonzero">
<path style=" stroke:none;fill-rule:nonzero;fill:rgb(12.548828%,12.548828%,12.548828%);fill-opacity:1;" d="M 78.796875 538.308594 C 93.605469 539.019531 108.390625 540.160156 123.207031 540.648438 C 228.984375 544.148438 223.792969 543.535156 301.867188 539.90625 C 318.308594 539.140625 334.710938 537.605469 351.160156 536.832031 C 378.949219 535.523438 406.78125 535.667969 434.601562 535.699219 C 454.238281 535.722656 473.878906 535.792969 493.515625 535.710938 C 496.648438 535.699219 499.78125 535.667969 502.910156 535.640625 L 502.910156 533.628906 C 492.445312 533.757812 481.964844 533.625 471.496094 533.695312 C 454.441406 533.804688 437.378906 533.71875 420.324219 533.722656 C 395.191406 533.734375 370.074219 533.761719 344.972656 535.144531 C 321.601562 536.433594 298.292969 538.46875 274.855469 539.054688 C 183.207031 541.320312 291.140625 541.898438 148.257812 539.519531 C 127.09375 539.167969 105.992188 537.675781 84.859375 536.808594 C 71.070312 536.242188 57.289062 535.550781 43.503906 534.984375 C 32.476562 534.53125 21.441406 534.230469 10.417969 533.777344 C 7.0625 533.640625 3.707031 533.53125 0.347656 533.4375 L 0.347656 535.371094 C 12.304688 535.601562 24.261719 536.035156 36.210938 536.539062 C 50.40625 537.140625 64.609375 537.628906 78.796875 538.308594 "/>
</g>
</g>
</svg>
