<?xml version="1.0" encoding="UTF-8"?>
<svg xmlns="http://www.w3.org/2000/svg" xmlns:xlink="http://www.w3.org/1999/xlink" width="487.5pt" height="273.749991pt" viewBox="0 0 487.5 273.749991" version="1.2">
<defs>
<clipPath id="clip1">
  <path d="M 0 0.015625 L 487 0.015625 L 487 273.484375 L 0 273.484375 Z M 0 0.015625 "/>
</clipPath>
</defs>
<g id="surface1">
<g clip-path="url(#clip1)" clip-rule="nonzero">
<path style=" stroke:none;fill-rule:nonzero;fill:rgb(11.759949%,10.978699%,10.978699%);fill-opacity:1;" d="M 257.070312 159.578125 C 257.070312 162.304688 249.6875 167.964844 245.441406 171.097656 C 245.441406 171.199219 245.441406 171.199219 245.339844 171.296875 C 245.035156 171.804688 238.667969 182.917969 222.082031 194.945312 C 221.171875 198.28125 219.25 201.816406 216.21875 205.351562 C 210.554688 211.921875 202.972656 216.671875 194.171875 218.996094 L 157.667969 228.492188 C 157.367188 228.59375 157.0625 228.695312 156.757812 228.796875 L 156.152344 229.101562 C 155.546875 229.402344 155.039062 230.011719 154.9375 230.71875 C 154.839844 231.425781 155.039062 232.132812 155.546875 232.636719 C 156.152344 233.242188 156.960938 233.648438 157.769531 233.648438 L 175.464844 236.375 C 177.792969 236.78125 180.320312 236.882812 182.644531 236.980469 C 183.554688 237.082031 184.464844 237.082031 185.273438 237.183594 C 189.824219 237.488281 194.578125 237.992188 198.117188 238.597656 C 204.792969 239.710938 206.105469 240.722656 206.207031 241.933594 C 206.207031 242.742188 205.902344 243.550781 205.296875 244.15625 C 201.960938 247.492188 189.015625 247.085938 187.5 246.988281 C 156.960938 247.59375 119.648438 244.359375 119.242188 244.257812 C 118.941406 244.257812 96.996094 241.226562 70.605469 253.152344 C 48.964844 262.851562 37.640625 273.359375 37.539062 273.460938 C 37.335938 273.664062 37.132812 273.765625 36.832031 273.765625 C 36.527344 273.765625 36.324219 273.664062 36.125 273.460938 C 35.71875 273.058594 35.71875 272.453125 36.125 272.046875 C 36.222656 271.945312 47.851562 261.234375 69.796875 251.332031 C 96.695312 239.207031 119.242188 242.339844 119.445312 242.339844 C 119.75 242.339844 157.0625 245.671875 187.5 244.964844 C 192.757812 245.167969 201.757812 244.761719 203.78125 242.742188 C 203.980469 242.539062 204.082031 242.339844 204.082031 242.238281 C 202.871094 241.328125 195.488281 239.914062 185.074219 239.207031 C 184.164062 239.105469 183.355469 239.105469 182.445312 239.003906 C 180.015625 238.902344 177.488281 238.699219 175.0625 238.296875 L 157.367188 235.566406 C 156.050781 235.464844 154.839844 234.859375 153.929688 233.949219 C 152.917969 232.941406 152.511719 231.625 152.714844 230.210938 C 152.917969 228.796875 153.828125 227.6875 155.039062 227.078125 L 155.648438 226.777344 C 156.050781 226.574219 156.457031 226.371094 156.960938 226.269531 L 193.464844 216.773438 C 201.859375 214.550781 209.140625 210.101562 214.5 203.835938 C 216.519531 201.410156 218.140625 198.988281 219.050781 196.664062 C 217.734375 197.570312 216.320312 198.480469 214.902344 199.390625 C 211.464844 201.511719 207.722656 203.128906 203.78125 204.242188 L 151.804688 218.589844 C 151.703125 218.589844 151.601562 218.589844 151.5 218.589844 C 151.097656 218.589844 150.691406 218.289062 150.488281 217.882812 C 150.390625 217.378906 150.691406 216.773438 151.199219 216.671875 L 203.171875 202.320312 C 206.914062 201.3125 210.554688 199.695312 213.789062 197.671875 C 228.65625 188.375 237.148438 178.675781 240.890625 173.621094 L 210.554688 191.207031 C 200.746094 196.863281 190.128906 200.402344 178.90625 201.816406 L 145.128906 205.859375 C 144.625 205.960938 144.121094 205.554688 144.019531 204.949219 C 143.917969 204.445312 144.320312 203.9375 144.929688 203.835938 L 178.703125 199.796875 C 189.625 198.480469 200.039062 195.046875 209.542969 189.488281 L 241.09375 171.097656 C 244.53125 169.074219 254.746094 161.195312 254.746094 159.273438 C 254.746094 158.363281 254.339844 157.554688 253.53125 157.050781 C 252.824219 156.546875 251.914062 156.445312 251.003906 156.746094 L 195.792969 178.070312 C 194.476562 178.574219 193.0625 178.878906 191.644531 178.878906 C 171.726562 179.078125 154.128906 177.664062 139.367188 174.734375 C 125.3125 171.90625 118.433594 168.671875 116.109375 167.457031 C 113.582031 166.042969 112.671875 163.011719 113.984375 160.484375 C 115.503906 157.554688 117.929688 155.230469 120.964844 153.917969 C 128.648438 150.582031 146.851562 141.589844 150.390625 131.078125 C 152.007812 126.128906 151.199219 124.714844 150.792969 124.410156 C 149.578125 123.398438 145.941406 124.914062 143.816406 126.230469 C 143.816406 126.230469 143.714844 126.230469 143.714844 126.332031 L 89.917969 152.90625 C 75.660156 158.769531 63.121094 171.199219 53.011719 181.203125 C 49.371094 184.839844 45.933594 188.273438 42.898438 190.800781 L 2.25 224.652344 C 2.046875 224.855469 1.84375 224.855469 1.640625 224.855469 C 1.339844 224.855469 1.035156 224.753906 0.832031 224.453125 C 0.429688 224.046875 0.527344 223.339844 0.933594 223.039062 L 41.785156 189.386719 C 44.71875 186.859375 48.15625 183.425781 51.796875 179.886719 C 62.011719 169.78125 74.75 157.152344 89.3125 151.1875 L 143.007812 124.613281 C 143.816406 124.105469 149.480469 120.671875 152.308594 122.894531 C 154.027344 124.308594 154.128906 127.140625 152.613281 131.789062 C 148.972656 142.601562 131.984375 151.492188 122.074219 155.835938 C 119.546875 156.949219 117.421875 158.96875 116.109375 161.496094 C 115.300781 163.113281 115.90625 165.035156 117.421875 165.84375 C 138.050781 177.160156 186.488281 177.058594 191.949219 177.058594 C 193.164062 177.058594 194.273438 176.855469 195.386719 176.453125 L 250.597656 155.128906 C 252.015625 154.523438 253.632812 154.726562 254.945312 155.636719 C 256.261719 156.546875 257.070312 158.0625 257.070312 159.578125 Z M 488.027344 53.167969 C 487.726562 53.371094 456.175781 70.75 440.097656 85.503906 C 422.402344 101.773438 391.964844 113.292969 365.976562 113.597656 C 343.023438 113.902344 321.988281 124.613281 316.023438 127.945312 C 314.101562 129.058594 311.976562 129.664062 309.957031 129.664062 C 309.855469 129.664062 309.753906 129.664062 309.652344 129.664062 C 306.820312 129.664062 305.609375 128.554688 305 127.542969 C 303.6875 125.117188 304.800781 121.175781 308.539062 115.214844 C 312.078125 109.65625 318.753906 105.109375 327.753906 102.179688 C 333.921875 100.15625 339.179688 99.550781 340.191406 99.347656 L 353.640625 93.085938 L 296.710938 88.941406 L 290.539062 91.265625 C 289.328125 94.195312 282.351562 110.667969 270.621094 117.335938 C 267.585938 119.054688 265.160156 119.863281 263.339844 119.863281 C 262.328125 119.863281 261.519531 119.558594 260.8125 119.054688 C 258.484375 117.234375 259.597656 113.09375 259.699219 112.585938 C 259.699219 112.484375 259.800781 112.386719 259.800781 112.386719 L 267.789062 98.742188 C 257.070312 101.976562 244.125 105.414062 238.867188 105.414062 C 238.261719 105.414062 237.757812 105.414062 237.351562 105.210938 C 235.328125 104.707031 234.21875 103.796875 233.914062 102.480469 C 233.410156 100.058594 236.441406 97.832031 236.949219 97.328125 C 236.949219 97.328125 237.046875 97.328125 237.046875 97.226562 L 280.832031 72.773438 L 294.28125 57.613281 C 297.113281 54.582031 300.652344 52.257812 304.496094 50.84375 L 308.84375 45.792969 C 315.011719 38.71875 322.796875 32.957031 331.496094 29.421875 L 344.945312 23.863281 C 335.234375 19.316406 326.84375 21.4375 326.742188 21.4375 C 325.933594 21.742188 305.203125 28.511719 298.832031 26.1875 C 298.023438 25.882812 295.597656 24.976562 295.496094 23.054688 C 295.394531 20.933594 298.226562 19.519531 298.730469 19.214844 L 332.605469 3.753906 C 335.84375 2.238281 339.484375 2.035156 342.921875 2.945312 L 344.742188 3.449219 C 383.367188 15.171875 412.085938 13.65625 429.378906 10.324219 C 448.085938 6.785156 457.691406 0.417969 457.792969 0.320312 C 458.300781 0.015625 458.90625 0.117188 459.207031 0.621094 C 459.511719 1.125 459.410156 1.734375 458.90625 2.035156 C 458.5 2.339844 448.792969 8.707031 429.78125 12.34375 C 412.289062 15.679688 383.167969 17.195312 344.234375 5.371094 L 342.414062 4.664062 C 339.484375 3.855469 336.347656 4.058594 333.515625 5.371094 L 299.742188 20.832031 C 298.730469 21.335938 297.621094 22.246094 297.621094 22.753906 C 297.621094 22.953125 298.023438 23.558594 299.640625 24.167969 C 304.394531 25.882812 320.472656 21.234375 326.234375 19.316406 C 326.742188 19.214844 336.753906 16.6875 347.875 22.953125 C 348.179688 23.15625 348.382812 23.460938 348.382812 23.863281 C 348.382812 24.269531 348.078125 24.570312 347.773438 24.773438 L 332.304688 31.140625 C 323.910156 34.574219 316.328125 40.132812 310.359375 47.003906 L 308.035156 49.734375 L 334.933594 43.265625 C 335.4375 43.164062 336.046875 43.46875 336.144531 43.972656 C 336.246094 44.476562 335.945312 45.085938 335.4375 45.1875 L 307.933594 51.753906 C 303.179688 52.867188 299.035156 55.289062 295.699219 58.929688 L 286.089844 69.742188 L 292.058594 66.40625 C 294.789062 64.890625 297.820312 64.082031 300.957031 64.082031 L 330.28125 64.082031 C 330.886719 64.082031 331.292969 64.488281 331.292969 65.09375 C 331.292969 65.699219 330.886719 66.101562 330.28125 66.101562 L 300.957031 66.101562 C 298.226562 66.101562 295.496094 66.8125 293.070312 68.125 L 238.261719 98.945312 C 237.25 99.753906 235.835938 101.167969 236.039062 101.976562 C 236.136719 102.382812 236.847656 102.886719 237.957031 103.191406 C 241.09375 103.996094 255.855469 100.15625 269.8125 96.015625 C 269.8125 96.015625 269.914062 96.015625 269.914062 96.015625 C 274.765625 94.601562 279.417969 93.085938 283.5625 91.769531 L 296.203125 87.019531 C 296.304688 86.921875 296.507812 86.921875 296.609375 86.921875 L 370.527344 92.375 C 371.132812 92.375 371.539062 92.882812 371.4375 93.488281 C 371.4375 93.992188 370.929688 94.5 370.324219 94.398438 L 357.785156 93.488281 L 341 101.371094 C 340.898438 101.371094 340.796875 101.472656 340.695312 101.472656 C 340.496094 101.472656 318.347656 103.796875 310.359375 116.425781 C 306.113281 123.199219 306.316406 125.722656 306.820312 126.632812 C 307.328125 127.644531 308.84375 127.746094 309.957031 127.746094 C 311.675781 127.746094 313.394531 127.238281 315.011719 126.230469 C 321.078125 122.894531 342.515625 111.878906 365.875 111.578125 C 391.359375 111.273438 421.289062 99.957031 438.679688 83.988281 C 455.0625 69.136719 486.714844 51.550781 487.015625 51.449219 C 487.523438 51.148438 488.128906 51.351562 488.433594 51.855469 C 488.734375 52.359375 488.535156 52.964844 488.027344 53.167969 Z M 288.011719 92.277344 L 284.273438 93.691406 C 282.855469 94.195312 277.496094 95.914062 270.824219 97.933594 L 261.722656 113.394531 C 261.519531 114.304688 261.113281 116.730469 262.125 117.539062 C 262.632812 117.941406 264.351562 118.550781 269.609375 115.617188 C 279.214844 110.160156 285.6875 97.328125 288.011719 92.277344 Z M 209.542969 34.675781 C 209.542969 34.171875 209.847656 33.765625 210.351562 33.664062 C 220.363281 31.339844 222.082031 29.625 224.410156 19.621094 C 224.507812 19.113281 224.914062 18.8125 225.417969 18.8125 C 225.925781 18.8125 226.328125 19.113281 226.429688 19.621094 C 228.757812 29.625 230.476562 31.339844 240.488281 33.664062 C 240.992188 33.765625 241.296875 34.171875 241.296875 34.675781 C 241.296875 35.179688 240.992188 35.585938 240.488281 35.6875 C 230.476562 38.011719 228.757812 39.730469 226.429688 49.734375 C 226.328125 50.238281 225.925781 50.542969 225.417969 50.542969 C 224.914062 50.542969 224.507812 50.238281 224.410156 49.734375 C 222.082031 39.730469 220.363281 38.011719 210.351562 35.6875 C 209.847656 35.585938 209.542969 35.179688 209.542969 34.675781 Z M 214.5 34.675781 C 220.96875 36.597656 223.398438 39.019531 225.320312 45.488281 C 227.238281 39.019531 229.667969 36.597656 236.136719 34.675781 C 229.667969 32.757812 227.238281 30.332031 225.320312 23.863281 C 223.398438 30.332031 220.96875 32.757812 214.5 34.675781 Z M 310.257812 194.339844 C 310.257812 194.84375 309.957031 195.246094 309.449219 195.347656 C 300.957031 197.371094 299.539062 198.785156 297.519531 207.273438 C 297.417969 207.777344 297.011719 208.082031 296.507812 208.082031 C 296 208.082031 295.597656 207.777344 295.496094 207.273438 C 293.472656 198.785156 292.058594 197.371094 283.5625 195.347656 C 283.058594 195.246094 282.753906 194.84375 282.753906 194.339844 C 282.753906 193.832031 283.058594 193.429688 283.5625 193.328125 C 292.058594 191.308594 293.472656 189.890625 295.496094 181.402344 C 295.597656 180.898438 296 180.59375 296.507812 180.59375 C 297.011719 180.59375 297.417969 180.898438 297.519531 181.402344 C 299.539062 189.890625 300.957031 191.308594 309.449219 193.328125 C 309.957031 193.53125 310.257812 193.933594 310.257812 194.339844 Z M 305.304688 194.339844 C 300.25 192.722656 298.125 190.699219 296.609375 185.648438 C 294.992188 190.699219 292.96875 192.824219 287.910156 194.339844 C 292.96875 195.957031 295.089844 197.976562 296.609375 203.027344 C 298.125 197.976562 300.25 195.957031 305.304688 194.339844 Z M 367.695312 152.402344 C 367.695312 152.90625 367.289062 153.3125 366.785156 153.414062 L 355.257812 154.929688 L 353.742188 166.449219 C 353.640625 166.953125 353.234375 167.359375 352.730469 167.359375 C 352.222656 167.359375 351.820312 166.953125 351.71875 166.449219 L 350.203125 154.929688 L 338.675781 153.511719 C 338.167969 153.414062 337.765625 153.007812 337.765625 152.503906 C 337.765625 151.996094 338.167969 151.59375 338.675781 151.492188 L 350.203125 149.976562 L 351.71875 138.558594 C 351.820312 138.050781 352.222656 137.648438 352.730469 137.648438 C 353.234375 137.648438 353.640625 138.050781 353.742188 138.558594 L 355.257812 149.976562 L 366.785156 151.492188 C 367.390625 151.492188 367.695312 151.898438 367.695312 152.402344 Z M 358.796875 152.402344 L 354.347656 151.796875 C 353.84375 151.695312 353.539062 151.390625 353.4375 150.886719 L 352.832031 146.441406 L 352.222656 150.886719 C 352.121094 151.390625 351.820312 151.695312 351.3125 151.796875 L 346.863281 152.402344 L 351.3125 153.007812 C 351.820312 153.109375 352.121094 153.414062 352.222656 153.917969 L 352.832031 158.363281 L 353.4375 153.917969 C 353.539062 153.414062 353.84375 153.109375 354.347656 153.007812 Z M 180.21875 128.65625 C 180.21875 128.148438 180.625 127.746094 181.128906 127.644531 L 192.65625 126.128906 L 194.171875 114.609375 C 194.273438 114.101562 194.679688 113.699219 195.183594 113.699219 C 195.691406 113.699219 196.09375 114.101562 196.195312 114.609375 L 197.714844 126.027344 L 209.242188 127.542969 C 209.746094 127.644531 210.152344 128.046875 210.152344 128.554688 C 210.152344 129.058594 209.746094 129.464844 209.242188 129.5625 L 197.714844 131.078125 L 196.195312 142.601562 C 196.09375 143.105469 195.691406 143.507812 195.183594 143.507812 C 194.679688 143.507812 194.273438 143.105469 194.171875 142.601562 L 192.65625 131.078125 L 181.128906 129.664062 C 180.523438 129.5625 180.21875 129.160156 180.21875 128.65625 Z M 189.117188 128.65625 L 193.566406 129.261719 C 194.074219 129.363281 194.375 129.664062 194.476562 130.171875 L 195.082031 134.617188 L 195.691406 130.171875 C 195.792969 129.664062 196.09375 129.363281 196.601562 129.261719 L 201.050781 128.65625 L 196.601562 128.046875 C 196.09375 127.949219 195.792969 127.644531 195.691406 127.140625 L 195.082031 122.691406 L 194.476562 127.140625 C 194.375 127.644531 194.074219 127.949219 193.566406 128.046875 Z M 159.691406 81.363281 C 159.691406 78.9375 161.714844 76.914062 164.140625 76.914062 C 166.566406 76.914062 168.589844 78.9375 168.589844 81.363281 C 168.589844 83.789062 166.566406 85.808594 164.140625 85.808594 C 161.714844 85.808594 159.691406 83.789062 159.691406 81.363281 Z M 161.714844 81.363281 C 161.714844 82.675781 162.828125 83.789062 164.140625 83.789062 C 165.457031 83.789062 166.566406 82.675781 166.566406 81.363281 C 166.566406 80.046875 165.457031 78.9375 164.140625 78.9375 C 162.828125 78.9375 161.714844 80.046875 161.714844 81.363281 Z M 259.394531 44.679688 C 259.394531 42.355469 261.316406 40.335938 263.746094 40.335938 C 266.070312 40.335938 268.09375 42.253906 268.09375 44.679688 C 268.09375 47.105469 266.171875 49.027344 263.746094 49.027344 C 261.316406 49.027344 259.394531 47.105469 259.394531 44.679688 Z M 261.417969 44.679688 C 261.417969 45.894531 262.429688 47.003906 263.746094 47.003906 C 265.058594 47.003906 266.070312 45.992188 266.070312 44.679688 C 266.070312 43.367188 265.058594 42.355469 263.746094 42.355469 C 262.429688 42.355469 261.417969 43.46875 261.417969 44.679688 Z M 326.035156 145.429688 C 326.035156 147.652344 324.316406 149.371094 322.089844 149.371094 C 319.867188 149.371094 318.148438 147.652344 318.148438 145.429688 C 318.148438 143.207031 319.96875 141.488281 322.089844 141.488281 C 324.214844 141.488281 326.035156 143.308594 326.035156 145.429688 Z M 324.011719 145.429688 C 324.011719 144.417969 323.101562 143.507812 322.089844 143.507812 C 321.078125 143.507812 320.167969 144.417969 320.167969 145.429688 C 320.167969 146.441406 321.078125 147.347656 322.089844 147.347656 C 323.203125 147.347656 324.011719 146.539062 324.011719 145.429688 Z M 251.914062 205.757812 C 251.914062 208.082031 249.992188 210 247.667969 210 C 245.339844 210 243.417969 208.082031 243.417969 205.757812 C 243.417969 203.433594 245.339844 201.511719 247.667969 201.511719 C 249.992188 201.511719 251.914062 203.433594 251.914062 205.757812 Z M 249.890625 205.757812 C 249.890625 204.542969 248.878906 203.535156 247.667969 203.535156 C 246.453125 203.535156 245.441406 204.542969 245.441406 205.757812 C 245.441406 206.96875 246.453125 207.980469 247.667969 207.980469 C 248.878906 207.980469 249.890625 206.96875 249.890625 205.757812 Z M 249.890625 205.757812 "/>
</g>
</g>
</svg>
