<?xml version="1.0" standalone="no"?>
<!DOCTYPE svg PUBLIC "-//W3C//DTD SVG 20010904//EN"
 "http://www.w3.org/TR/2001/REC-SVG-20010904/DTD/svg10.dtd">
<svg version="1.0" xmlns="http://www.w3.org/2000/svg"
 width="512.000000pt" height="512.000000pt" viewBox="0 0 512.000000 512.000000"
 preserveAspectRatio="xMidYMid meet">
<metadata>
Created by potrace 1.11, written by Peter Selinger 2001-2013
</metadata>
<g transform="translate(0.000000,512.000000) scale(0.100000,-0.100000)"
fill="#000000" stroke="none">
<path d="M2462 4560 c-76 -16 -172 -70 -233 -131 -90 -90 -127 -170 -136 -295
-10 -142 36 -268 134 -367 49 -49 138 -104 196 -121 15 -5 17 -22 17 -168 l0
-163 -503 0 c-490 -1 -504 -1 -581 -23 -327 -93 -545 -366 -559 -701 l-4 -74
-74 -26 c-106 -38 -174 -80 -249 -154 -124 -123 -181 -255 -186 -427 -4 -112
9 -185 48 -275 75 -170 233 -308 409 -359 l56 -17 6 -60 c4 -33 18 -95 32
-137 86 -258 305 -449 575 -502 61 -12 2164 -17 2267 -5 136 15 291 87 399
186 135 121 243 335 244 480 0 32 4 38 28 44 116 29 236 100 323 191 303 320
185 850 -226 1021 -27 11 -65 24 -82 28 -18 3 -33 10 -34 13 0 4 -2 34 -3 67
-9 199 -84 372 -219 508 -79 79 -151 127 -247 167 -126 52 -141 53 -665 56
-269 1 -495 3 -502 3 -9 1 -12 43 -12 159 l0 157 75 34 c219 99 329 354 250
581 -78 224 -311 357 -544 310z m183 -250 c92 -36 151 -131 142 -229 -11 -125
-103 -211 -227 -211 -156 0 -260 141 -216 293 37 126 178 195 301 147z m1025
-1244 c204 -37 381 -222 408 -426 8 -63 6 -1387 -3 -1433 -26 -148 -135 -294
-268 -360 -118 -59 -73 -57 -1257 -56 l-1085 0 -72 25 c-193 64 -316 208 -349
409 -4 22 -6 348 -6 725 0 661 1 687 21 754 55 184 201 321 383 358 52 10 286
13 1124 12 582 0 1079 -4 1104 -8z m-2876 -1178 c-1 -199 -2 -366 -3 -371 -2
-16 -106 47 -151 92 -81 81 -118 173 -115 286 3 116 44 205 129 283 44 40 123
85 136 77 3 -2 5 -167 4 -367z m3603 342 c134 -77 205 -205 199 -359 -6 -149
-86 -271 -222 -339 -39 -20 -42 -20 -45 -4 -3 14 -3 636 0 710 1 28 5 28 68
-8z"/>
<path d="M1608 2545 c-244 -49 -364 -327 -232 -537 98 -155 294 -210 461 -128
169 83 243 299 160 470 -25 53 -86 121 -133 151 -70 43 -174 61 -256 44z m144
-264 c30 -26 33 -35 33 -84 0 -49 -3 -58 -30 -81 -30 -26 -36 -28 -88 -30 -40
-2 -95 49 -101 93 -15 107 106 174 186 102z"/>
<path d="M3390 2548 c-114 -17 -210 -89 -263 -198 -29 -58 -32 -74 -32 -155 0
-75 4 -98 24 -140 35 -70 68 -110 126 -150 142 -98 326 -81 451 42 93 93 127
221 90 347 -51 174 -216 280 -396 254z m111 -254 c37 -19 63 -75 55 -119 -4
-17 -20 -44 -36 -60 -86 -82 -225 17 -179 126 24 60 99 85 160 53z"/>
<path d="M2219 1459 c-112 -18 -149 -148 -61 -214 26 -19 45 -20 392 -23 369
-3 389 -1 426 33 36 34 45 109 18 151 -36 55 -50 57 -410 58 -182 0 -346 -2
-365 -5z"/>
</g>
</svg>
